<?xml version="1.0" encoding="UTF-8" standalone="no"?>
<!-- Created with Inkscape (http://www.inkscape.org/) -->

<svg
   width="180.00006mm"
   height="180.00024mm"
   viewBox="0 0 180.00006 180.00024"
   version="1.1"
   id="svg5"
   xml:space="preserve"
   inkscape:version="1.2.2 (732a01da63, 2022-12-09)"
   sodipodi:docname="iconos.svg"
   xmlns:inkscape="http://www.inkscape.org/namespaces/inkscape"
   xmlns:sodipodi="http://sodipodi.sourceforge.net/DTD/sodipodi-0.dtd"
   xmlns="http://www.w3.org/2000/svg"
   xmlns:svg="http://www.w3.org/2000/svg"><sodipodi:namedview
     id="namedview7"
     pagecolor="#ffffff"
     bordercolor="#000000"
     borderopacity="0.25"
     inkscape:showpageshadow="2"
     inkscape:pageopacity="0.0"
     inkscape:pagecheckerboard="0"
     inkscape:deskcolor="#d1d1d1"
     inkscape:document-units="mm"
     showgrid="false"
     inkscape:zoom="0.27212897"
     inkscape:cx="-3206.2003"
     inkscape:cy="3004.0903"
     inkscape:window-width="1920"
     inkscape:window-height="1051"
     inkscape:window-x="-9"
     inkscape:window-y="-9"
     inkscape:window-maximized="1"
     inkscape:current-layer="layer1" /><defs
     id="defs2" /><g
     inkscape:label="Capa 1"
     inkscape:groupmode="layer"
     id="layer1"
     transform="translate(639.80073,-1705.3068)"><path
       style="fill:#ffffff;stroke-width:0.366774"
       d="m -565.47968,1884.7552 c -1.95827,-0.6075 -3.92398,-2.4225 -4.49811,-4.1533 -0.23357,-0.704 -0.77445,-3.8184 -1.20204,-6.921 l -0.77747,-5.6411 -2.94182,-1.1865 c -1.61802,-0.6526 -4.68315,-2.0069 -6.8115,-3.0096 l -3.8697,-1.823 -3.301,2.5036 c -6.58432,4.9938 -7.35071,5.4154 -9.84578,5.4154 -1.47264,0 -2.7437,-0.2464 -3.73518,-0.7239 -2.1201,-1.021 -20.14876,-19.0992 -20.93848,-20.9961 -1.29523,-3.1107 -0.85739,-4.4305 3.73341,-11.2543 l 3.29838,-4.9027 -1.84605,-4.2 c -1.01532,-2.3101 -2.38022,-5.6817 -3.03323,-7.4926 l -1.18718,-3.2924 -5.0984,-0.6779 c -2.80406,-0.373 -5.75989,-0.843 -6.56853,-1.0446 -1.94102,-0.484 -4.73848,-3.2493 -5.2892,-5.2282 -0.26232,-0.9429 -0.40792,-6.0909 -0.40918,-14.4752 0,-15.082 0.11851,-15.9093 2.63952,-18.0561 1.6789,-1.4296 1.87031,-1.4817 9.43587,-2.5647 l 5.27454,-0.755 1.61562,-4.8951 c 0.88856,-2.6923 2.25116,-6.0671 3.028,-7.4995 l 1.41238,-2.6044 -3.22726,-4.2584 c -1.77491,-2.342 -3.56604,-4.8114 -3.98035,-5.4874 -1.01335,-1.6537 -1.02684,-5.014 -0.0282,-7.066 0.99117,-2.0371 19.22736,-20.0918 21.06525,-20.8558 3.20759,-1.3333 4.90135,-0.7319 11.27563,4.0043 l 5.01337,3.7251 2.98637,-1.7029 c 2.35356,-1.3422 8.28759,-3.627 10.99458,-4.2333 0.22572,-0.05 0.67591,-2.4352 1.04231,-5.5201 0.3548,-2.9873 0.81399,-6.0895 1.02046,-6.894 0.496,-1.9325 3.27945,-4.7157 5.2622,-5.2618 2.07073,-0.5703 26.85547,-0.555 29.14271,0.018 1.16584,0.292 2.19404,0.9136 3.25173,1.9658 1.68936,1.6805 1.59762,1.3951 3.38635,10.5471 l 0.99179,5.0747 3.86113,1.3516 c 2.12365,0.7435 5.51376,2.0962 7.53354,3.006 l 3.67233,1.6541 3.13061,-2.1766 c 7.67579,-5.3368 8.00255,-5.5172 10.28676,-5.6817 3.85997,-0.2777 4.10421,-0.1077 14.27361,9.939 10.27359,10.1495 11.11393,11.2735 11.11393,14.8656 0,2.4107 -0.41253,3.136 -5.40457,9.4999 l -3.29106,4.1956 1.59983,2.9917 c 0.87987,1.6456 2.24507,4.6933 3.03385,6.7728 1.27473,3.3608 1.5494,3.808 2.47227,4.0243 0.57099,0.1338 3.45622,0.6845 6.41163,1.2237 5.80036,1.0584 7.02688,1.583 8.6495,3.6996 l 1.05382,1.3746 v 15.0272 c 0,14.4888 -0.0272,15.079 -0.76136,16.4711 -1.52233,2.8868 -2.65742,3.4288 -10.29661,4.9157 l -6.8886,1.3408 -1.36447,3.2835 c -0.75038,1.8059 -2.10638,4.8546 -3.01325,6.7747 l -1.64877,3.4915 3.47274,4.9226 c 1.90996,2.7075 3.70486,5.4524 3.98843,6.0999 0.88322,2.016 0.65749,4.7874 -0.55972,6.871 -1.45494,2.4903 -18.49893,19.3407 -20.33274,20.1018 -0.75195,0.3121 -2.3659,0.5674 -3.58665,0.5674 -2.21194,0 -2.2385,-0.013 -7.90801,-3.8413 -3.12884,-2.1125 -5.83446,-3.8411 -6.01259,-3.8411 -0.17802,0 -1.96141,0.766 -3.96289,1.7023 -2.00148,0.9364 -5.12833,2.2344 -6.94853,2.8845 l -3.30958,1.1821 -0.76325,5.2552 c -0.41975,2.8903 -0.89389,5.817 -1.05361,6.5037 -0.39267,1.6886 -3.36837,4.6113 -5.21378,5.121 -2.23212,0.6166 -27.45763,0.4876 -29.5157,-0.1509 z m -22.29814,-58.6744 c 2.38504,-2.5463 7.40144,-6.4079 11.20901,-8.6286 3.74502,-2.1841 11.10336,-5.3132 12.49482,-5.3132 0.57393,0 2.09625,0.484 3.38301,1.0755 3.17213,1.4582 7.25217,2.22 11.79297,2.2018 3.80851,-0.016 4.17502,-0.087 13.89717,-2.7394 l 2.39026,-0.6519 3.99187,1.586 c 7.42894,2.9518 14.02927,7.4414 19.78361,13.457 3.6036,3.7673 3.10916,3.7769 5.72233,-0.1129 4.92958,-7.3382 8.8723,-17.2023 11.1385,-27.8677 0.7233,-3.4037 0.75551,-4.0782 0.37667,-7.8653 -2.01237,-20.1113 -12.87944,-36.4467 -30.10061,-45.2469 -8.97511,-4.5865 -18.99871,-6.5738 -29.57448,-5.8636 -25.77591,1.7309 -47.05297,21.0028 -51.4513,46.6025 -1.05686,6.1508 -0.81282,15.7544 0.5438,21.4008 1.70265,7.0869 4.88701,14.2669 8.76226,19.7565 l 1.87554,2.6568 0.95885,-1.2379 c 0.52737,-0.6807 1.78997,-2.125 2.80572,-3.2095 z m 35.67776,-22.7662 c -9.08201,-0.8758 -16.8168,-7.5868 -19.11628,-16.586 -0.71461,-2.7968 -0.71461,-8.2072 0,-11.0039 2.06319,-8.0748 9.15188,-14.9874 17.01993,-16.5976 7.6554,-1.5667 15.7156,0.7915 21.03418,6.1541 4.1588,4.1933 6.25139,9.4469 6.25139,15.6951 0,6.4455 -1.9996,11.2346 -6.60283,15.8141 -5.16065,5.134 -11.1609,7.2402 -18.58639,6.5242 z"
       id="path1180"
       inkscape:export-filename="..\public\images\icons\dark\admin.svg"
       inkscape:export-xdpi="96"
       inkscape:export-ydpi="96" /></g></svg>
