<?xml version="1.0" encoding="UTF-8" standalone="no"?>
<!-- Created with Inkscape (http://www.inkscape.org/) -->

<svg
   width="179.99994mm"
   height="179.95459mm"
   viewBox="0 0 179.99994 179.95459"
   version="1.1"
   id="svg5"
   xml:space="preserve"
   xmlns="http://www.w3.org/2000/svg"
   xmlns:svg="http://www.w3.org/2000/svg"><defs
     id="defs2" /><g
     id="layer1"
     transform="translate(585.96083,-6071.8905)"><path
       style="fill:#ffffff;stroke-width:0.352153"
       d="m -577.65855,6251.5731 c -3.15048,-1.0217 -6.13356,-3.671 -7.5095,-6.6686 -0.57407,-1.2511 -0.75481,-2.3233 -0.75202,-4.4637 0,-5.3781 -2.69767,-2.3082 37.5422,-42.6129 l 35.86423,-35.922 -35.57914,-35.565 c -40.22574,-40.2099 -37.84173,-37.5037 -37.84111,-42.9529 1.6e-4,-2.3137 0.16631,-3.175 0.91849,-4.7615 1.08276,-2.284 3.3733,-4.6437 5.51337,-5.6797 2.97423,-1.4397 7.42051,-1.4017 10.41726,0.088 0.98572,0.4904 13.14461,12.398 37.29406,36.5233 l 35.83147,35.7957 35.83163,-35.7957 c 24.14945,-24.1253 36.30834,-36.0329 37.29406,-36.5233 3.01942,-1.502 7.44365,-1.5284 10.47177,-0.062 2.1632,1.0472 4.36709,3.3275 5.46383,5.6533 0.74923,1.589 0.91165,2.443 0.90466,4.754 -0.0171,5.3786 2.68185,2.3162 -37.54762,42.6137 l -35.86207,35.9228 35.57822,35.5642 c 40.24748,40.2316 37.85663,37.5164 37.8234,42.9532 -0.0155,2.0907 -0.21025,3.2508 -0.76103,4.4701 -0.99767,2.2088 -3.37749,4.7245 -5.54629,5.863 -1.55435,0.8159 -2.19069,0.9323 -5.12035,0.9368 -2.80731,0 -3.62874,-0.1304 -5.10623,-0.8357 -1.41429,-0.6755 -8.81229,-7.882 -37.59235,-36.6198 l -35.83163,-35.7788 -35.83147,35.7788 c -28.85506,28.8126 -36.17433,35.9419 -37.59235,36.6162 -1.87547,0.892 -6.49117,1.287 -8.27549,0.7081 z"
       id="path1032" /></g></svg>
