<?xml version="1.0" encoding="UTF-8" standalone="no"?>
<!-- Created with Inkscape (http://www.inkscape.org/) -->

<svg
   width="180mm"
   height="129.48755mm"
   viewBox="0 0 180 129.48755"
   version="1.1"
   id="svg5"
   xml:space="preserve"
   inkscape:version="1.2.2 (732a01da63, 2022-12-09)"
   sodipodi:docname="iconos.svg"
   xmlns:inkscape="http://www.inkscape.org/namespaces/inkscape"
   xmlns:sodipodi="http://sodipodi.sourceforge.net/DTD/sodipodi-0.dtd"
   xmlns="http://www.w3.org/2000/svg"
   xmlns:svg="http://www.w3.org/2000/svg"><sodipodi:namedview
     id="namedview7"
     pagecolor="#ffffff"
     bordercolor="#000000"
     borderopacity="0.25"
     inkscape:showpageshadow="2"
     inkscape:pageopacity="0.0"
     inkscape:pagecheckerboard="0"
     inkscape:deskcolor="#d1d1d1"
     inkscape:document-units="mm"
     showgrid="false"
     inkscape:zoom="0.19242424"
     inkscape:cx="-3008.9764"
     inkscape:cy="1587.6378"
     inkscape:window-width="1920"
     inkscape:window-height="1051"
     inkscape:window-x="-9"
     inkscape:window-y="-9"
     inkscape:window-maximized="1"
     inkscape:current-layer="layer1" /><defs
     id="defs2" /><g
     inkscape:label="Capa 1"
     inkscape:groupmode="layer"
     id="layer1"
     transform="translate(635.91609,-2978.579)"><path
       style="fill:#ffffff;stroke-width:0.351946"
       d="m -575.31325,3107.4524 c -0.97034,-0.3355 -2.47491,-1.0325 -3.34348,-1.5489 -0.89838,-0.5343 -13.05728,-12.4415 -28.20599,-27.6221 -20.97333,-21.0179 -26.81703,-27.0659 -27.52261,-28.4855 -1.37338,-2.7629 -1.84988,-5.9573 -1.31864,-8.8404 1.75186,-9.508 11.67368,-14.4799 20.44944,-10.2474 2.0665,0.9968 4.31207,3.1224 23.22851,21.9881 l 20.94078,20.8848 46.28092,-46.2399 c 32.88133,-32.8521 46.72749,-46.4625 47.82303,-47.0087 3.56308,-1.7765 6.99834,-2.1998 10.42413,-1.2848 7.13364,1.9057 11.6925,8.9392 10.43198,16.0949 -0.86459,4.9083 2.10702,1.7183 -53.34798,57.2702 -28.07954,28.1286 -51.97659,51.8428 -53.10468,52.6983 -3.62631,2.75 -8.80195,3.7016 -12.73541,2.3414 z"
       id="path499"
       inkscape:export-filename="..\public\images\icons\light\check.svg"
       inkscape:export-xdpi="96"
       inkscape:export-ydpi="96" /></g></svg>
