<?xml version="1.0" encoding="UTF-8" standalone="no"?>
<!-- Created with Inkscape (http://www.inkscape.org/) -->

<svg
   width="180mm"
   height="180.00012mm"
   viewBox="0 0 180 180.00012"
   version="1.1"
   id="svg5"
   xml:space="preserve"
   inkscape:version="1.2.2 (732a01da63, 2022-12-09)"
   sodipodi:docname="iconos.svg"
   xmlns:inkscape="http://www.inkscape.org/namespaces/inkscape"
   xmlns:sodipodi="http://sodipodi.sourceforge.net/DTD/sodipodi-0.dtd"
   xmlns="http://www.w3.org/2000/svg"
   xmlns:svg="http://www.w3.org/2000/svg"><sodipodi:namedview
     id="namedview7"
     pagecolor="#ffffff"
     bordercolor="#000000"
     borderopacity="0.25"
     inkscape:showpageshadow="2"
     inkscape:pageopacity="0.0"
     inkscape:pagecheckerboard="0"
     inkscape:deskcolor="#d1d1d1"
     inkscape:document-units="mm"
     showgrid="false"
     inkscape:zoom="0.27212897"
     inkscape:cx="-3206.2003"
     inkscape:cy="3004.0903"
     inkscape:window-width="1920"
     inkscape:window-height="1051"
     inkscape:window-x="-9"
     inkscape:window-y="-9"
     inkscape:window-maximized="1"
     inkscape:current-layer="layer1" /><defs
     id="defs2" /><g
     inkscape:label="Capa 1"
     inkscape:groupmode="layer"
     id="layer1"
     transform="translate(613.60139,-1316.4527)"><path
       style="fill:#ffffff;stroke-width:0.351647"
       d="m -556.47128,1496.3083 c -2.73323,-0.6977 -47.81733,-15.8865 -49.1793,-16.5685 -2.03961,-1.0214 -4.66294,-3.5545 -5.94101,-5.7366 -2.12981,-3.6362 -2.0119,0.7722 -2.0073,-75.0654 0,-57.5831 0.086,-69.6081 0.48622,-71.1131 1.44598,-5.4328 6.01991,-9.8421 11.39269,-10.9825 1.32236,-0.2808 14.33333,-0.3937 44.82658,-0.3894 47.98295,0.01 45.53773,-0.1133 50.8739,2.4998 3.9905,1.9542 8.02751,5.9417 9.92571,9.8041 2.30981,4.6999 2.41502,5.6782 2.30321,21.4095 l -0.099,13.9904 -0.87895,1.2983 c -1.48317,2.1911 -3.25556,3.1849 -5.9339,3.3275 -2.88855,0.1537 -4.96475,-0.818 -6.54713,-3.0641 l -1.05476,-1.4971 -0.17581,-13.5996 -0.17581,-13.5996 -0.87894,-1.5671 c -0.48342,-0.8618 -1.56488,-2.049 -2.40312,-2.6378 l -1.52418,-1.0708 -18.51595,-0.084 -18.51584,-0.085 1.9716,0.8163 c 4.21912,1.7469 6.68464,4.0354 8.51794,7.9066 l 1.11255,2.3493 0.092,58.1336 0.092,58.1335 12.62305,-0.1006 12.62314,-0.1006 1.52388,-1.0708 c 0.83824,-0.5888 1.9195,-1.7759 2.40292,-2.6378 l 0.87894,-1.5671 0.17581,-17.2341 c 0.15461,-15.1614 0.24572,-17.3609 0.75764,-18.2891 2.97445,-5.3939 11.11107,-5.0259 13.46459,0.609 0.80364,1.9242 0.80084,34.8322 0,38.2554 -1.44447,6.1495 -6.06911,11.9424 -11.7579,14.7282 -4.73674,2.3196 -6.14371,2.4928 -20.30374,2.4998 l -12.39333,0.01 v 5.1086 c 0,4.2057 -0.12421,5.4622 -0.70263,7.1085 -1.50368,4.2799 -4.80475,7.7473 -8.85536,9.3013 -1.82999,0.7021 -6.68424,1.161 -8.19681,0.775 z m 82.80083,-67.7756 c -1.68109,-0.5355 -3.9669,-2.9151 -4.49333,-4.6779 -0.30432,-1.0189 -0.43242,-4.8996 -0.43242,-13.1014 v -11.6537 h -15.13807 c -17.40279,0 -17.6188,-0.026 -20.04673,-2.4553 -3.70159,-3.703 -2.80874,-9.4335 1.8301,-11.746 l 1.85049,-0.9225 h 15.7521 15.75211 v -11.6945 c 0,-7.0751 0.14761,-12.2193 0.37072,-13.0231 1.13686,-4.0952 6.40922,-6.3849 10.32742,-4.485 0.94195,0.4568 6.89436,6.1838 17.45549,16.7945 17.03457,17.1144 16.86026,16.9055 16.83896,20.1867 -0.018,2.7971 -0.83484,3.7559 -16.97326,19.9286 -11.6656,11.6903 -15.97372,15.7899 -17.27918,16.4427 -1.871,0.9355 -3.74529,1.0667 -5.8164,0.4069 z"
       id="path950"
       inkscape:export-filename="..\public\images\icons\dark\exit.svg"
       inkscape:export-xdpi="96"
       inkscape:export-ydpi="96" /></g></svg>
