<?xml version="1.0" encoding="UTF-8" standalone="no"?>
<!-- Created with Inkscape (http://www.inkscape.org/) -->

<svg
   width="179.99994mm"
   height="127.55005mm"
   viewBox="0 0 179.99994 127.55005"
   version="1.1"
   id="svg5"
   xml:space="preserve"
   inkscape:version="1.2.2 (732a01da63, 2022-12-09)"
   sodipodi:docname="iconos.svg"
   xmlns:inkscape="http://www.inkscape.org/namespaces/inkscape"
   xmlns:sodipodi="http://sodipodi.sourceforge.net/DTD/sodipodi-0.dtd"
   xmlns="http://www.w3.org/2000/svg"
   xmlns:svg="http://www.w3.org/2000/svg"><sodipodi:namedview
     id="namedview7"
     pagecolor="#ffffff"
     bordercolor="#000000"
     borderopacity="0.25"
     inkscape:showpageshadow="2"
     inkscape:pageopacity="0.0"
     inkscape:pagecheckerboard="0"
     inkscape:deskcolor="#d1d1d1"
     inkscape:document-units="mm"
     showgrid="false"
     inkscape:zoom="0.19242424"
     inkscape:cx="-3021.9685"
     inkscape:cy="10869.213"
     inkscape:window-width="1920"
     inkscape:window-height="1051"
     inkscape:window-x="-9"
     inkscape:window-y="-9"
     inkscape:window-maximized="1"
     inkscape:current-layer="layer1" /><defs
     id="defs2" /><g
     inkscape:label="Capa 1"
     inkscape:groupmode="layer"
     id="layer1"
     transform="translate(858.23403,-3791.3327)"><path
       style="fill:#ffffff;stroke-width:0.371908"
       d="m -812.53626,3918.1403 c -1.63311,-1.2602 -1.79098,-2.4647 -1.64307,-12.5428 0.15863,-10.8135 0.746,-14.5256 3.28308,-20.7485 2.49638,-6.123 5.45476,-10.4524 10.47148,-15.3246 13.63324,-13.2401 34.39112,-16.6819 52.12825,-8.6431 12.70926,5.7601 22.35773,17.7821 25.26513,31.4806 0.68342,3.2197 0.84653,5.434 0.97387,13.2179 0.16487,10.0785 0.0109,11.2902 -1.63946,12.5605 -0.95221,0.7346 -1.41847,0.7424 -44.41964,0.7424 -43.00128,0 -43.46754,-0.011 -44.41964,-0.7424 z m -45.18773,-10.1458 c -0.92202,-1.3802 -0.51571,-13.7561 0.59185,-18.0269 2.87414,-11.0831 12.17024,-20.0595 23.48968,-22.682 2.85587,-0.6617 4.16516,-0.7558 8.44891,-0.608 3.01702,0.1042 5.98152,0.4223 7.32232,0.7859 2.25122,0.6104 7.69789,2.9598 7.69789,3.3205 0,0.1051 -0.739,1.3149 -1.6422,2.6887 -3.51226,5.3421 -5.76884,10.535 -7.2477,16.679 -0.76843,3.1922 -0.96764,5.1704 -1.14071,11.3267 l -0.20961,7.4589 h -18.34037 -18.34036 z m 141.80049,-5.7794 c 0,-5.2076 -0.72323,-10.4658 -2.08252,-15.1942 -1.2069,-4.1986 -4.73645,-11.313 -7.4373,-14.9912 l -2.0822,-2.8357 1.23939,-0.7513 c 2.09664,-1.2711 5.3621,-2.565 8.59299,-3.4049 4.27445,-1.1112 11.19407,-1.0997 15.47782,0.026 11.52041,3.0267 20.11548,11.4639 23.1186,22.6941 0.66001,2.468 0.79829,4.1486 0.85091,10.3446 0.0492,5.7976 -0.0481,7.5304 -0.45247,8.0114 -0.46812,0.5575 -2.19806,0.6137 -18.86921,0.6137 h -18.35382 z m -103.61213,-48.1425 c 7.22233,-2.1999 13.25833,-8.5684 15.02972,-15.8575 1.62097,-6.6704 -0.47064,-14.1434 -5.42074,-19.368 -3.95085,-4.1698 -8.96615,-6.5388 -14.81081,-6.9959 -9.82385,-0.7685 -19.73948,5.8284 -22.71776,15.1142 -1.1732,3.6576 -1.16664,9.2849 0.0153,12.9719 2.94711,9.194 12.3827,15.5665 22.27174,15.0417 1.76943,-0.094 4.3041,-0.5018 5.63265,-0.9064 z m 115.67079,-1.3476 c 6.9311,-1.9981 12.9379,-7.6435 15.01823,-14.115 4.34458,-13.5145 -5.28891,-27.2094 -19.87556,-28.2546 -10.46952,-0.7502 -20.52781,6.5993 -23.00428,16.8094 -0.27022,1.1143 -0.49131,3.269 -0.49131,4.7885 0,10.5153 7.81199,19.4421 18.68573,21.3526 2.49223,0.4378 7.09226,0.1614 9.66719,-0.5809 z m -58.88114,-6.6215 c 10.10806,-2.1827 18.72895,-10.4041 21.31657,-20.329 0.98339,-3.7714 0.98175,-9.6615 0,-13.4412 -2.5652,-9.8382 -10.4309,-17.5569 -20.60975,-20.2241 -3.68632,-0.9659 -10.01102,-1.0419 -13.73126,-0.1651 -9.94549,2.3442 -17.84413,9.6549 -20.94035,19.3819 -0.7508,2.3587 -0.87716,3.5163 -0.86414,7.9193 0.0142,4.6592 0.11574,5.4414 1.05614,8.1037 3.32508,9.4134 10.65134,16.1714 20.14469,18.5823 3.57823,0.9087 9.85393,0.9879 13.63182,0.1722 z"
       id="path682"
       sodipodi:nodetypes="csssssscscssssssssscccscsscsssssssccsssssssssssssssscscsssssscc" /></g></svg>
