<?xml version="1.0" encoding="UTF-8" standalone="no"?>
<!-- Created with Inkscape (http://www.inkscape.org/) -->

<svg
   width="179.96753mm"
   height="180mm"
   viewBox="0 0 179.96753 180"
   version="1.1"
   id="svg5"
   xml:space="preserve"
   xmlns:inkscape="http://www.inkscape.org/namespaces/inkscape"
   xmlns:sodipodi="http://sodipodi.sourceforge.net/DTD/sodipodi-0.dtd"
   xmlns="http://www.w3.org/2000/svg"
   xmlns:svg="http://www.w3.org/2000/svg"><sodipodi:namedview
     id="namedview7"
     pagecolor="#ffffff"
     bordercolor="#000000"
     borderopacity="0.25"
     inkscape:showpageshadow="2"
     inkscape:pageopacity="0.0"
     inkscape:pagecheckerboard="0"
     inkscape:deskcolor="#d1d1d1"
     inkscape:document-units="mm"
     showgrid="false" /><defs
     id="defs2" /><g
     inkscape:label="Capa 1"
     inkscape:groupmode="layer"
     id="layer1"
     transform="translate(902.8373,927.67533)"><path
       style="fill:#ffffff;stroke-width:0.352497"
       d="m -869.00609,-748.34082 c -3.61136,-0.95323 -5.83558,-2.25323 -8.73855,-5.1075 -2.74241,-2.69638 -4.67365,-6.14152 -5.39432,-9.62288 -0.26177,-1.26458 -0.38668,-10.97139 -0.38668,-30.05036 0,-28.1824 0,-28.1824 -2.39341,-28.1824 -8.44168,0 -15.3223,-5.77034 -16.70779,-14.01174 -0.54873,-3.26412 -0.019,-6.72714 1.52343,-9.95804 1.01036,-2.11646 4.05503,-5.25247 39.91487,-41.11233 45.24778,-45.24776 40.47603,-41.19569 48.51234,-41.19569 8.04197,0 3.26766,-4.05385 48.5172,41.19569 45.24869,45.2487 41.19568,40.4756 41.19568,48.51476 0,4.72364 -0.0126,4.79924 -1.20896,7.2336 -2.82953,5.75769 -8.67021,9.33375 -15.24457,9.33375 -2.38179,0 -2.38179,0 -2.48154,29.16911 -0.0997,29.16912 -0.0997,29.16912 -1.04191,31.59404 -2.49863,6.43096 -7.64557,10.93387 -14.14185,12.37228 -2.16333,0.47899 -4.93309,0.54755 -18.6421,0.46137 -15.6306,-0.0982 -16.12968,-0.12245 -17.07431,-0.82798 -0.53518,-0.39972 -1.30012,-1.16465 -1.69983,-1.69984 -0.71274,-0.95426 -0.73019,-1.42784 -0.90303,-24.50489 -0.17625,-23.53183 -0.17625,-23.53183 -1.2464,-25.26617 -1.2031,-1.94982 -3.89414,-3.79256 -6.06151,-4.15078 -1.72789,-0.28558 -18.20098,-0.28558 -19.92885,0 -2.1674,0.35822 -4.85844,2.20096 -6.06154,4.15078 -1.07015,1.73434 -1.07015,1.73434 -1.2464,25.26617 -0.17284,23.07705 -0.19029,23.55063 -0.90301,24.50489 -0.39972,0.53519 -1.16466,1.30012 -1.69987,1.69984 -0.94678,0.70713 -1.41784,0.72876 -17.42681,0.80059 -15.26641,0.0685 -16.63966,0.0248 -19.03028,-0.60627 z m 28.48508,-29.58868 c 0,-12.94043 0.13296,-20.36482 0.38667,-21.59043 1.36898,-6.61324 6.71385,-12.33224 13.53695,-14.48451 2.33391,-0.73619 3.08762,-0.77833 13.92362,-0.77833 10.11933,0 11.70294,0.0757 13.57114,0.64814 6.90151,2.11499 12.01936,7.3824 13.74106,14.14267 0.44719,1.75591 0.53506,5.35924 0.53506,21.94292 0,19.84202 0,19.84202 12.60175,19.82655 13.55276,-0.0167 14.09217,-0.0786 16.47209,-1.89392 0.67385,-0.51396 1.66492,-1.68256 2.2024,-2.59689 0.97722,-1.66242 0.97722,-1.66242 1.15347,-33.62589 0.17422,-31.59472 0.18463,-31.9747 0.90303,-32.93667 1.69752,-2.27312 2.151,-2.41117 8.55077,-2.603 6.80902,-0.20411 7.89448,-0.59296 9.20353,-3.29706 0.91586,-1.89193 0.92567,-3.48056 0.0328,-5.31595 -0.99874,-2.05301 -74.77384,-75.75609 -76.57642,-76.50167 -1.76373,-0.7295 -3.28989,-0.68225 -5.01124,0.15514 -2.05302,0.99874 -75.75609,74.77383 -76.50167,76.57642 -0.73677,1.78127 -0.68097,3.29113 0.18794,5.08606 1.30904,2.7041 2.3945,3.09295 9.20352,3.29706 6.39978,0.19183 6.85328,0.32988 8.55078,2.60303 0.71839,0.96199 0.72881,1.34198 0.90303,32.93667 0.17624,31.96344 0.17624,31.96344 1.15348,33.62586 0.53746,0.91433 1.52854,2.08293 2.20238,2.59689 2.37992,1.81526 2.91933,1.87727 16.47208,1.89392 12.60177,0.0155 12.60177,0.0155 12.60177,-19.70701 z"
       id="path423"
       inkscape:export-filename="home.dark.svg.svg"
       inkscape:export-xdpi="96"
       inkscape:export-ydpi="96" /></g></svg>
