<?xml version="1.0" encoding="UTF-8" standalone="no"?>
<!-- Created with Inkscape (http://www.inkscape.org/) -->

<svg
   width="180mm"
   height="179.97461mm"
   viewBox="0 0 180 179.97461"
   version="1.1"
   id="svg5"
   xml:space="preserve"
   inkscape:version="1.2.2 (732a01da63, 2022-12-09)"
   sodipodi:docname="iconos.svg"
   xmlns:inkscape="http://www.inkscape.org/namespaces/inkscape"
   xmlns:sodipodi="http://sodipodi.sourceforge.net/DTD/sodipodi-0.dtd"
   xmlns="http://www.w3.org/2000/svg"
   xmlns:svg="http://www.w3.org/2000/svg"><sodipodi:namedview
     id="namedview7"
     pagecolor="#ffffff"
     bordercolor="#000000"
     borderopacity="0.25"
     inkscape:showpageshadow="2"
     inkscape:pageopacity="0.0"
     inkscape:pagecheckerboard="0"
     inkscape:deskcolor="#d1d1d1"
     inkscape:document-units="mm"
     showgrid="false"
     inkscape:zoom="0.19242424"
     inkscape:cx="-3021.9685"
     inkscape:cy="10869.213"
     inkscape:window-width="1920"
     inkscape:window-height="1051"
     inkscape:window-x="-9"
     inkscape:window-y="-9"
     inkscape:window-maximized="1"
     inkscape:current-layer="layer1" /><defs
     id="defs2" /><g
     inkscape:label="Capa 1"
     inkscape:groupmode="layer"
     id="layer1"
     transform="translate(622.2328,-4688.017)"><path
       style="fill:#ffffff;stroke-width:0.351625"
       d="m -540.32422,4867.6499 c -20.50144,-1.9453 -39.4517,-10.6825 -54.45864,-25.1084 -11.59849,-11.1494 -20.55402,-26.4594 -24.47915,-41.8484 -3.28312,-12.8718 -3.82771,-24.7315 -1.71974,-37.448 2.94609,-17.772 11.39353,-34.4381 24.21676,-47.7778 11.14933,-11.5985 26.4594,-20.554 41.84834,-24.4791 12.87169,-3.2831 24.73145,-3.8277 37.44802,-1.7198 28.32355,4.6953 53.32922,23.3458 65.91061,49.1595 3.14769,6.4582 4.81323,10.8952 6.34633,16.9056 3.97186,15.5725 3.97186,29.7872 0,45.3596 -4.60192,18.0425 -15.67899,35.1825 -30.55237,47.275 -6.9273,5.6319 -17.18543,11.4608 -25.70563,14.6063 -11.75285,4.3389 -26.4224,6.2553 -38.85453,5.0755 z m 15.67413,-10.543 c 14.56576,-1.4174 28.4601,-6.8746 40.58586,-15.9407 4.28682,-3.2051 11.77516,-10.6934 14.98028,-14.9803 16.03494,-21.4465 20.48374,-47.9772 12.25384,-73.077 -5.7002,-17.3847 -17.81773,-32.7701 -33.56338,-42.6148 -27.74868,-17.3493 -63.27662,-15.626 -90.01611,4.3663 -4.2867,3.205 -11.77515,10.6935 -14.98015,14.9802 -21.75296,29.0943 -21.75296,67.2512 0,96.3453 3.205,4.2869 10.69345,11.7752 14.98015,14.9803 9.83951,7.3567 20.97962,12.4102 32.44156,14.7165 7.6103,1.5314 15.76283,1.9594 23.31795,1.2242 z m -10.71326,-21.4557 c -6.0366,-1.1855 -11.16778,-6.4222 -12.33769,-12.5915 -0.48367,-2.5503 -0.48367,-45.3475 0,-47.8978 1.56549,-8.2552 9.66345,-14.037 17.77711,-12.6924 6.67736,1.1064 11.91221,6.1587 13.15127,12.6924 0.48367,2.5503 0.48367,45.3475 0,47.8978 -1.62829,8.5861 -10.02564,14.2736 -18.59069,12.5915 z m 6.20279,-11.1604 c 2.26209,-1.6108 2.19805,-0.8719 2.19805,-25.38 0,-24.5616 0.071,-23.7631 -2.24103,-25.4118 -1.53435,-1.0946 -4.53227,-1.0946 -6.06674,0 -2.33959,1.6689 -2.26633,0.7922 -2.16055,25.8326 l 0.0959,22.6107 0.77994,1.0934 c 1.63427,2.2912 5.11112,2.8812 7.39489,1.2551 z m -6.20279,-73.2297 c -7.98695,-1.5686 -13.73711,-9.7909 -12.41731,-17.7558 1.14301,-6.898 6.33287,-12.0879 13.23089,-13.2309 10.16755,-1.6848 19.54158,7.6892 17.85673,17.8568 -1.48464,8.9595 -9.8719,14.8578 -18.67031,13.1299 z m 6.20279,-11.1605 c 1.47965,-1.0536 2.31828,-2.9729 2.10921,-4.8274 -0.33315,-2.9561 -2.81863,-4.9686 -5.73059,-4.6405 -6.77542,0.7638 -5.85506,10.9029 0.93967,10.352 0.91313,-0.074 2.08828,-0.4615 2.68171,-0.8841 z"
       id="path534" /></g></svg>
