<?xml version="1.0" encoding="UTF-8" standalone="no"?>
<!-- Created with Inkscape (http://www.inkscape.org/) -->

<svg
   width="180mm"
   height="179.99976mm"
   viewBox="0 0 180 179.99976"
   version="1.1"
   id="svg5"
   xml:space="preserve"
   inkscape:version="1.2.2 (732a01da63, 2022-12-09)"
   sodipodi:docname="iconos.svg"
   xmlns:inkscape="http://www.inkscape.org/namespaces/inkscape"
   xmlns:sodipodi="http://sodipodi.sourceforge.net/DTD/sodipodi-0.dtd"
   xmlns="http://www.w3.org/2000/svg"
   xmlns:svg="http://www.w3.org/2000/svg"><sodipodi:namedview
     id="namedview7"
     pagecolor="#ffffff"
     bordercolor="#000000"
     borderopacity="0.25"
     inkscape:showpageshadow="2"
     inkscape:pageopacity="0.0"
     inkscape:pagecheckerboard="0"
     inkscape:deskcolor="#d1d1d1"
     inkscape:document-units="mm"
     showgrid="false"
     inkscape:zoom="0.09621212"
     inkscape:cx="-7426.2993"
     inkscape:cy="1948.8189"
     inkscape:window-width="1920"
     inkscape:window-height="1051"
     inkscape:window-x="-9"
     inkscape:window-y="-9"
     inkscape:window-maximized="1"
     inkscape:current-layer="g1162" /><defs
     id="defs2" /><g
     inkscape:label="Capa 1"
     inkscape:groupmode="layer"
     id="layer1"
     transform="translate(636.89308,-2143.3115)"><path
       style="fill:#ffffff;stroke-width:0.351894"
       d="m -562.02548,2323.0541 c -0.87098,-0.1735 -2.86958,-0.9503 -4.44146,-1.7259 -4.13765,-2.0415 -7.21093,-5.4786 -8.90053,-9.954 l -0.36527,-0.9677 h -28.8138 -28.81371 l -1.1958,-0.7987 c -1.65596,-1.1061 -2.50491,-2.8644 -2.30941,-4.7835 0.28999,-2.8455 2.23714,-4.4744 5.79321,-4.846 l 2.15286,-0.225 0.1029,-10.0678 c 0.1004,-9.8118 0.12323,-10.0963 0.8993,-11.184 0.46918,-0.6578 1.45416,-1.3674 2.39791,-1.7278 1.58279,-0.6045 1.66217,-0.5986 6.76989,0.5012 8.2725,1.7812 10.00864,1.9763 17.30937,1.9449 5.20001,-0.022 8.05588,-0.2158 11.78922,-0.7982 22.05933,-3.442 25.42241,-3.5621 31.68369,-1.1312 3.23734,1.2569 6.17029,3.2164 8.74727,5.8442 l 2.07218,2.113 2.53214,-2.4632 c 3.04285,-2.9597 6.0807,-4.8133 9.84568,-6.0071 5.26368,-1.6692 10.04958,-1.5217 24.39437,0.7522 16.26892,2.5786 22.76153,2.4802 36.32884,-0.5509 3.81583,-0.8524 5.12354,-0.7332 6.72395,0.6134 1.96987,1.6573 2.07398,2.2948 2.07398,12.6956 v 9.461 l 2.32653,0.2173 c 3.72284,0.3475 5.70533,1.9525 6.00142,4.8584 0.1955,1.9191 -0.65345,3.6774 -2.30941,4.7835 l -1.1958,0.7987 h -28.81371 -28.8138 l -0.36527,0.9677 c -1.94555,5.1533 -5.70072,8.8989 -11.05459,11.0264 -2.0934,0.8319 -2.23494,0.8396 -16.53999,0.9042 -7.93566,0.036 -15.14119,-0.077 -16.01216,-0.2507 z m 28.89258,-10.5849 c 3.02463,-1.0126 4.70842,-3.2142 5.21994,-6.8254 0.37767,-2.6672 1.07017,-3.8505 2.87538,-4.9138 1.15876,-0.6823 1.92253,-0.7067 25.21319,-0.8033 l 24.0182,-0.1001 v -5.8382 -5.8383 l -1.14375,0.2307 c -9.10844,1.8379 -19.30597,1.9647 -29.64884,0.3691 -1.93554,-0.2986 -6.13215,-0.9508 -9.32576,-1.4494 -3.65987,-0.5714 -7.43295,-0.9235 -10.20554,-0.9522 -4.37028,-0.045 -4.41613,-0.037 -7.03836,1.2235 -1.45165,0.6979 -3.31042,1.8854 -4.13074,2.6391 -1.83024,1.6813 -3.75276,4.8643 -4.50892,7.4652 -1.01983,3.5073 -3.75617,5.2517 -6.80513,4.3383 -1.82033,-0.5452 -2.9948,-1.9579 -3.87919,-4.6659 -1.87048,-5.7275 -6.10983,-9.6227 -11.87722,-10.9133 -2.45096,-0.5484 -8.24517,-0.079 -17.53909,1.419 -10.3623,1.671 -13.03528,1.9227 -20.2351,1.9058 -6.25538,-0.015 -9.9696,-0.3551 -15.04439,-1.3792 l -1.14375,-0.2307 v 5.8383 5.8383 l 24.19417,0.099 c 23.46674,0.096 24.23021,0.1207 25.38917,0.8032 1.80521,1.0633 2.49771,2.2466 2.87539,4.9138 0.5016,3.541 2.17948,5.7878 5.07949,6.8013 1.51472,0.5294 26.08737,0.5508 27.66085,0.024 z m -21.85422,-47.485 c -4.86228,-0.8517 -8.99733,-3.9448 -11.18192,-8.3639 l -1.31112,-2.6526 -0.21221,-8.2874 c -0.18899,-7.3795 -0.31161,-8.6615 -1.11912,-11.7009 -1.93014,-7.2655 -4.41003,-12.4276 -9.63447,-20.0551 -3.74285,-5.4644 -5.6891,-9.3021 -6.94446,-13.6935 -4.04106,-14.1364 -0.37988,-28.5603 9.92635,-39.1067 14.28283,-14.6159 36.71353,-16.2258 53.0289,-3.8062 14.84179,11.2978 19.84301,31.9031 11.83477,48.7604 -0.73603,1.5494 -2.98739,5.2706 -5.00282,8.269 -5.11753,7.6135 -7.3808,12.3663 -9.35758,19.6505 -0.81732,3.0118 -0.94815,4.3086 -1.15907,11.4881 -0.207,7.0484 -0.33333,8.3345 -0.97848,9.963 -1.63153,4.118 -5.51263,7.7406 -9.73907,9.09 -2.12903,0.6798 -15.00695,0.9957 -18.1497,0.4453 z m 15.69234,-10.893 c 2.0992,-1.0161 2.60721,-2.2746 2.60721,-6.4593 v -3.3776 h -10.20553 -10.20554 v 3.5362 c 0,6.386 0.89249,7.0006 10.18241,7.0124 5.46989,0.01 6.29652,-0.07 7.62145,-0.7117 z m -12.87702,-36.3208 c 0,-17.7915 -0.044,-17.4527 2.49911,-19.203 0.98288,-0.6763 1.52773,-0.7964 3.05817,-0.6735 2.14014,0.1717 3.3987,0.963 4.34856,2.734 0.60671,1.1309 0.65155,2.3127 0.65155,17.1425 v 15.9278 h 2.92363 2.92364 l 1.003,-3.6068 c 2.04556,-7.3558 5.24146,-14.0091 10.34058,-21.5272 5.13455,-7.5702 6.60562,-11.3607 6.9839,-17.9945 0.4937,-8.6586 -2.47508,-16.2254 -8.82615,-22.496 -6.16068,-6.0826 -13.90555,-9.0468 -22.21088,-8.5007 -18.19996,1.1965 -30.97548,17.8584 -27.3097,35.6177 0.86957,4.2129 2.51372,7.6662 6.18731,12.9959 5.17579,7.5091 8.8784,15.2352 10.75048,22.4327 l 0.80081,3.0789 h 2.93794 2.93805 z m -65.46167,5.9873 c -1.8978,-0.9619 -2.92724,-2.6104 -2.92724,-4.6878 0,-2.7146 0.82974,-3.4515 9.87551,-8.7703 4.51964,-2.6575 8.77651,-4.9578 9.45959,-5.1119 2.15346,-0.4855 4.24896,0.4075 5.42664,2.3126 1.11252,1.8 0.86287,4.6788 -0.53213,6.1347 -0.97828,1.021 -15.61897,9.8224 -17.53689,10.5424 -1.42433,0.5349 -2.01102,0.4695 -3.76548,-0.4197 z m 137.62546,0.4041 c -1.95155,-0.7794 -16.5509,-9.5915 -17.45641,-10.5366 -1.38539,-1.4458 -1.63164,-4.3309 -0.52282,-6.1249 1.18158,-1.9115 3.27338,-2.7981 5.44586,-2.3082 0.6937,0.1564 4.95027,2.4563 9.45909,5.111 9.02415,5.3132 9.85679,6.0539 9.85679,8.7668 0,2.0774 -1.02944,3.7259 -2.92724,4.6878 -1.68409,0.8536 -2.51272,0.9405 -3.85527,0.4041 z m -142.93479,-35.9504 c -3.23154,-2.1585 -3.15987,-6.3934 0.14975,-8.8453 0.95476,-0.7074 1.3944,-0.7362 11.2613,-0.7362 9.63477,0 10.34138,0.043 11.4626,0.7038 1.92553,1.1341 2.67879,2.419 2.65877,4.5356 -0.013,1.3344 -0.23874,2.154 -0.81952,2.9695 -1.51552,2.128 -1.77849,2.1713 -13.17022,2.1713 -10.1712,0 -10.3672,-0.014 -11.54268,-0.7987 z m 128.83685,0.01 c -3.34926,-2.2858 -3.15166,-6.7997 0.38889,-8.8848 1.12123,-0.6603 1.82783,-0.7038 11.4626,-0.7038 9.82145,0 10.31004,0.032 11.23957,0.7256 3.30332,2.4658 3.3854,6.7092 0.17148,8.856 -1.17618,0.7855 -1.36717,0.7987 -11.64919,0.7987 -10.26219,0 -10.47451,-0.014 -11.61335,-0.7917 z m -108.91766,-26.327 c -4.63545,-2.5402 -15.27793,-8.9788 -16.06572,-9.7197 -3.49981,-3.2914 -0.31111,-9.5703 4.46658,-8.795 0.98489,0.1597 12.88012,6.8696 17.11567,9.6545 2.79841,1.84 3.22984,5.7576 0.8915,8.0956 -1.65326,1.6531 -4.22634,1.96 -6.40803,0.7646 z m 107.33417,0.4098 c -0.38709,-0.1717 -1.16557,-0.8002 -1.72993,-1.3966 -0.80731,-0.8532 -1.06017,-1.4941 -1.18559,-3.0063 -0.27007,-3.2572 0.13363,-3.6411 9.82585,-9.3455 4.66518,-2.7458 9.00043,-5.0763 9.63377,-5.1791 4.76178,-0.7726 7.93806,5.5109 4.44846,8.7999 -0.51331,0.4839 -4.49651,2.9783 -8.85148,5.5433 -6.87039,4.0464 -8.15088,4.6789 -9.67761,4.78 -0.96777,0.064 -2.07628,-0.024 -2.46347,-0.1957 z"
       id="path960"
       inkscape:export-filename="..\public\images\icons\dark\interests.png"
       inkscape:export-xdpi="96"
       inkscape:export-ydpi="96" /></g></svg>
