<?xml version="1.0" encoding="UTF-8" standalone="no"?>
<!-- Created with Inkscape (http://www.inkscape.org/) -->

<svg
   width="196.92639mm"
   height="180.00006mm"
   viewBox="0 0 196.92639 180.00006"
   version="1.1"
   id="svg5"
   xml:space="preserve"
   inkscape:version="1.2.2 (732a01da63, 2022-12-09)"
   sodipodi:docname="iconos.svg"
   xmlns:inkscape="http://www.inkscape.org/namespaces/inkscape"
   xmlns:sodipodi="http://sodipodi.sourceforge.net/DTD/sodipodi-0.dtd"
   xmlns="http://www.w3.org/2000/svg"
   xmlns:svg="http://www.w3.org/2000/svg"><sodipodi:namedview
     id="namedview7"
     pagecolor="#ffffff"
     bordercolor="#000000"
     borderopacity="0.25"
     inkscape:showpageshadow="2"
     inkscape:pageopacity="0.0"
     inkscape:pagecheckerboard="0"
     inkscape:deskcolor="#d1d1d1"
     inkscape:document-units="mm"
     showgrid="false"
     inkscape:zoom="0.096212121"
     inkscape:cx="-4360.1575"
     inkscape:cy="265.03937"
     inkscape:window-width="1920"
     inkscape:window-height="1051"
     inkscape:window-x="-9"
     inkscape:window-y="-9"
     inkscape:window-maximized="1"
     inkscape:current-layer="layer1" /><defs
     id="defs2" /><g
     inkscape:label="Capa 1"
     inkscape:groupmode="layer"
     id="layer1"
     transform="translate(892.24581,-878.50431)"><path
       style="fill:#ffffff;stroke-width:0.384738"
       d="m -875.56874,1057.8297 c -4.09467,-1.191 -6.75679,-2.7625 -9.84956,-5.8142 -5.85478,-5.7775 -8.10139,-13.5941 -6.12649,-21.316 1.11879,-4.3747 2.81388,-7.3017 6.14852,-10.6173 4.57567,-4.5493 9.38296,-6.5405 15.79094,-6.5405 6.34205,0 11.2835,2.0479 15.77809,6.539 4.82993,4.8261 6.70997,9.3764 6.67708,16.1605 -0.0153,3.1462 -0.2102,4.5929 -0.8815,6.5406 -2.628,7.6248 -8.84628,13.4429 -16.22695,15.1827 -3.26641,0.77 -8.41042,0.7087 -11.31013,-0.1348 z m 10.84719,-11.9031 c 2.08612,-1.0731 4.1086,-3.1729 5.17216,-5.3697 1.17677,-2.4311 1.17677,-6.5851 0,-9.0161 -2.80607,-5.7963 -9.35006,-8.0941 -15.00459,-5.2684 -8.35106,4.173 -8.06804,15.7568 0.48481,19.8439 1.67092,0.7985 2.39256,0.9159 4.8486,0.7892 1.96587,-0.1014 3.39981,-0.4134 4.49902,-0.9789 z m 41.78438,-5.053 c -3.50369,-2.1363 -3.34352,-7.6819 0.28348,-9.8127 1.32548,-0.7787 1.67383,-0.7831 62.12161,-0.7831 60.09653,0 60.80333,0.01 62.09484,0.7695 3.85541,2.2709 4.09514,7.2814 0.46431,9.7069 l -1.30726,0.8733 h -61.21272 c -60.03274,0 -61.23628,-0.016 -62.44426,-0.7524 z m -51.55699,-50.22694 c -5.43346,-1.1808 -10.55315,-4.6859 -13.76861,-9.4263 -7.06812,-10.42027 -4.42727,-24.30183 5.96447,-31.35052 13.31547,-9.03206 31.50355,-1.59661 34.8157,14.233 1.06341,5.08226 0.42622,9.53392 -2.09729,14.65432 -4.43155,8.9916 -15.01315,14.0413 -24.91427,11.8895 z m 9.47536,-12.1462 c 8.4967,-3.7492 8.42113,-16.2871 -0.12086,-20.01744 -5.42979,-2.37131 -11.58978,-0.12974 -14.38622,5.23508 -1.37443,2.63698 -1.42706,6.86916 -0.1178,9.42606 2.88869,5.6389 8.95123,7.8594 14.62411,5.3563 z m 43.12102,-4.6332 c -4.8746,-1.9381 -4.79643,-8.8438 0.12086,-10.70179 0.74856,-0.28278 19.74165,-0.40921 61.47723,-0.40921 59.29243,0 60.42117,0.0138 61.87714,0.75661 1.57163,0.80174 3.10317,3.27667 3.10317,5.01446 0,1.73777 -1.53154,4.21273 -3.10317,5.01443 -1.45658,0.7432 -2.56038,0.7562 -61.99846,0.7322 -39.13802,-0.016 -60.85504,-0.1594 -61.47708,-0.4067 z m -53.47865,-50.96172 c -5.55402,-1.46154 -11.55873,-6.20868 -14.16516,-11.19862 -4.7464,-9.08659 -3.13545,-19.50489 4.12329,-26.66769 4.48127,-4.42187 9.5774,-6.54633 15.6762,-6.53486 10.00454,0.0188 18.37839,6.10082 21.71044,15.76856 1.13408,3.2906 1.23475,9.46612 0.20989,12.88873 -2.28714,7.63849 -8.5992,13.77704 -16.20277,15.75754 -2.83622,0.73874 -8.51859,0.73188 -11.35189,-0.0138 z m 10.22682,-11.85249 c 4.11732,-1.91717 6.44516,-5.54609 6.44516,-10.04721 0,-6.08908 -4.18432,-10.47684 -10.37706,-10.88132 -2.34665,-0.15328 -3.05146,-0.0398 -4.84247,0.78022 -6.78204,3.10491 -8.83022,11.06465 -4.35506,16.92547 2.93244,3.84052 8.74102,5.26632 13.12943,3.22284 z m 44.12706,-4.45434 c -1.78275,-0.42785 -3.07242,-1.37681 -3.81486,-2.80714 -1.36097,-2.62155 -0.47732,-6.16087 1.90024,-7.61052 1.20798,-0.73655 2.41152,-0.75106 62.44426,-0.75246 l 61.21272,-10e-4 1.30726,0.87332 c 3.63083,2.42554 3.3911,7.43605 -0.46431,9.70697 -1.29013,0.75989 -2.05338,0.77022 -61.32547,0.82926 -33.01046,0.0329 -60.57737,-0.0742 -61.25984,-0.23799 z"
       id="path908" /></g></svg>
