<?xml version="1.0" encoding="UTF-8" standalone="no"?>
<!-- Created with Inkscape (http://www.inkscape.org/) -->

<svg
   width="150.14667mm"
   height="179.99997mm"
   viewBox="0 0 150.14667 179.99997"
   version="1.1"
   id="svg5"
   xml:space="preserve"
   xmlns:inkscape="http://www.inkscape.org/namespaces/inkscape"
   xmlns:sodipodi="http://sodipodi.sourceforge.net/DTD/sodipodi-0.dtd"
   xmlns="http://www.w3.org/2000/svg"
   xmlns:svg="http://www.w3.org/2000/svg"><sodipodi:namedview
     id="namedview7"
     pagecolor="#ffffff"
     bordercolor="#000000"
     borderopacity="0.25"
     inkscape:showpageshadow="2"
     inkscape:pageopacity="0.0"
     inkscape:pagecheckerboard="0"
     inkscape:deskcolor="#d1d1d1"
     inkscape:document-units="mm"
     showgrid="false" /><defs
     id="defs2" /><g
     inkscape:label="Capa 1"
     inkscape:groupmode="layer"
     id="layer1"
     transform="translate(671.38716,1.5805)"><path
       style="fill:#ffffff;stroke-width:0.351859"
       d="m -645.17681,178.15693 c -7.57111,-1.12172 -12.5672,-3.55193 -17.65504,-8.58781 -7.2558,-7.18171 -9.40916,-15.24654 -8.26746,-30.96364 0.74948,-10.31777 2.6196,-19.95913 5.21565,-26.88915 1.52856,-4.08046 4.84502,-10.30493 6.94381,-13.03245 6.38784,-8.30149 15.40837,-12.91543 25.63154,-13.1104 3.8246,-0.0729 4.15966,0.0693 12.19459,5.17679 6.10341,3.87969 6.39796,4.03507 10.61198,5.59833 5.88179,2.18193 8.80281,2.73492 14.36139,2.71877 8.63471,-0.0251 15.39932,-2.31033 24.86781,-8.40099 8.26311,-5.31528 8.77761,-5.49752 14.09713,-4.9935 18.93806,1.7944 30.49778,16.18894 34.73765,43.25646 1.49278,9.52996 1.60691,22.40509 0.24484,27.62098 -2.74119,10.49711 -10.58902,18.09562 -21.67768,20.98899 -3.16674,0.82631 -3.16674,0.82631 -51.19558,0.87618 -26.41587,0.0274 -48.96564,-0.0889 -50.11063,-0.25856 z m 44.12902,-93.24348 c -13.87961,-0.95261 -26.69739,-9.08521 -34.05316,-21.60595 -6.38891,-10.87498 -7.42514,-25.87926 -2.60525,-37.72309 5.17634,-12.71978 16.87338,-22.8875099 29.79713,-25.90136987 15.44392,-3.60156003 30.27407,0.56847 41.20251,11.58555987 7.4945,7.55531 11.51831,16.14919 12.40775,26.49998 0.88158,10.25948 -1.41703,19.54302 -6.93052,27.99065 -2.13765,3.27525 -9.06613,10.18704 -12.33427,12.30454 -8.28093,5.36544 -17.09701,7.56261 -27.48419,6.84968 z"
       id="path478"
       inkscape:export-filename="profile.in.dark.svg"
       inkscape:export-xdpi="96"
       inkscape:export-ydpi="96" /></g></svg>
