<?xml version="1.0" encoding="UTF-8" standalone="no"?>
<!-- Created with Inkscape (http://www.inkscape.org/) -->

<svg
   width="150.14673mm"
   height="180mm"
   viewBox="0 0 150.14673 180"
   version="1.1"
   id="svg5"
   xml:space="preserve"
   xmlns:inkscape="http://www.inkscape.org/namespaces/inkscape"
   xmlns:sodipodi="http://sodipodi.sourceforge.net/DTD/sodipodi-0.dtd"
   xmlns="http://www.w3.org/2000/svg"
   xmlns:svg="http://www.w3.org/2000/svg"><sodipodi:namedview
     id="namedview7"
     pagecolor="#ffffff"
     bordercolor="#000000"
     borderopacity="0.25"
     inkscape:showpageshadow="2"
     inkscape:pageopacity="0.0"
     inkscape:pagecheckerboard="0"
     inkscape:deskcolor="#d1d1d1"
     inkscape:document-units="mm"
     showgrid="false" /><defs
     id="defs2" /><g
     inkscape:label="Capa 1"
     inkscape:groupmode="layer"
     id="layer1"
     transform="translate(872.13729,11.54926)"><path
       style="fill:#ffffff;stroke-width:0.351859"
       d="m -845.92683,168.18817 c -7.57112,-1.12172 -12.56721,-3.55193 -17.65505,-8.58781 -7.2558,-7.18171 -9.40916,-15.24654 -8.26746,-30.96364 0.74949,-10.31777 2.61961,-19.95912 5.21565,-26.88915 1.52858,-4.08046 4.84502,-10.30493 6.94381,-13.03245 6.38784,-8.30149 15.40838,-12.91543 25.63156,-13.11039 3.82459,-0.0729 4.15964,0.0693 12.19458,5.17678 6.1034,3.87969 6.39795,4.03509 10.61198,5.59833 5.88178,2.18195 8.8028,2.73493 14.36138,2.71877 8.63471,-0.0251 15.39932,-2.31033 24.86781,-8.40098 8.26312,-5.31528 8.77761,-5.49753 14.09715,-4.99351 18.93804,1.7944 30.49776,16.18894 34.73763,43.25646 1.49278,9.52996 1.60691,22.40509 0.24485,27.62098 -2.74119,10.49711 -10.58903,18.09563 -21.67769,20.98901 -3.16674,0.82629 -3.16674,0.82629 -51.19558,0.87616 -26.41586,0.0274 -48.96564,-0.0889 -50.11062,-0.25856 z m 97.73195,-10.68752 c 5.82922,-1.03898 10.90541,-4.5627 13.35673,-9.27179 1.68283,-3.23283 2.35732,-6.5482 2.35359,-11.56883 -0.01,-13.92492 -2.49453,-27.27272 -6.60106,-35.46836 -4.59061,-9.16177 -10.38358,-13.74375 -18.87521,-14.92945 -2.83621,-0.39603 -2.13317,-0.68607 -9.13062,3.76684 -6.11489,3.89128 -9.53139,5.54035 -15.04051,7.25979 -5.4633,1.70513 -9.40964,2.31945 -14.89985,2.31945 -5.64827,0 -9.91459,-0.68498 -15.35811,-2.46579 -5.7966,-1.89633 -8.56813,-3.26629 -15.20659,-7.51663 -5.84321,-3.74118 -5.84321,-3.74118 -8.40694,-3.38267 -9.78977,1.36903 -16.5016,7.55977 -20.78442,19.17077 -3.16532,8.5814 -5.31152,24.04565 -4.71235,33.95446 0.6122,10.12441 6.41502,16.60964 16.36414,18.28856 0.90359,0.15247 22.46418,0.29033 47.91243,0.30634 38.16972,0.0241 46.75258,-0.057 49.02877,-0.46269 z M -801.79782,74.9447 c -13.87961,-0.95262 -26.69739,-9.0852 -34.05315,-21.60595 -6.3889,-10.87499 -7.42515,-25.87927 -2.60526,-37.7231 5.17634,-12.7197799 16.87338,-22.8874999 29.79715,-25.90137 15.4439,-3.60156 30.27407,0.5684701 41.20249,11.5855601 7.53712,7.59826 11.58438,16.2899799 12.40427,26.6387999 0.82304,10.38856 -1.42276,19.41834 -6.92704,27.85184 -2.10074,3.21872 -9.05435,10.17978 -12.20877,12.22187 -8.37932,5.42455 -17.22353,7.64519 -27.60969,6.93235 z m 6.99266,-10.5301 c 4.186,-0.44089 6.94967,-1.15775 10.14024,-2.63026 8.96718,-4.13849 15.87582,-12.27628 18.27105,-21.52177 0.72798,-2.80991 0.90075,-4.32197 0.91821,-8.0354 0.0246,-5.24373 -0.38818,-7.84078 -1.91858,-12.07028 -2.93345,-8.10696 -11.19861,-16.2881499 -19.49919,-19.30110987 -5.63729,-2.04623003 -13.65148,-2.39296003 -19.6545,-0.85036 -10.88672,2.79757997 -20.48391,12.38033987 -23.46052,23.42525987 -1.09266,4.05438 -1.10781,12.47471 -0.0298,16.58368 1.49812,5.7105 3.85315,9.8012 8.34506,14.49541 5.5761,5.82722 11.98789,9.04538 19.71949,9.89743 3.53156,0.3892 3.54371,0.38921 7.16858,0.007 z"
       id="path480"
       inkscape:export-filename="profile.dark.svg"
       inkscape:export-xdpi="96"
       inkscape:export-ydpi="96" /></g></svg>
