<?xml version="1.0" encoding="UTF-8" standalone="no"?>
<!-- Created with Inkscape (http://www.inkscape.org/) -->

<svg
   width="179.85718mm"
   height="180mm"
   viewBox="0 0 179.85718 180"
   version="1.1"
   id="svg5"
   xml:space="preserve"
   xmlns:inkscape="http://www.inkscape.org/namespaces/inkscape"
   xmlns:sodipodi="http://sodipodi.sourceforge.net/DTD/sodipodi-0.dtd"
   xmlns="http://www.w3.org/2000/svg"
   xmlns:svg="http://www.w3.org/2000/svg"><sodipodi:namedview
     id="namedview7"
     pagecolor="#ffffff"
     bordercolor="#000000"
     borderopacity="0.25"
     inkscape:showpageshadow="2"
     inkscape:pageopacity="0.0"
     inkscape:pagecheckerboard="0"
     inkscape:deskcolor="#d1d1d1"
     inkscape:document-units="mm"
     showgrid="false" /><defs
     id="defs2" /><g
     inkscape:label="Capa 1"
     inkscape:groupmode="layer"
     id="layer1"
     transform="translate(675.67751,459.08965)"><path
       style="fill:#ffffff;stroke-width:0.351603"
       d="m -663.6032,-279.61018 c -5.87992,-1.58353 -10.42898,-6.28612 -11.65187,-12.04509 -0.56327,-2.65265 -0.56327,-152.19386 0,-154.84651 0.91054,-4.28805 4.24744,-8.73003 7.97843,-10.62066 4.07608,-2.06552 1.11209,-1.96646 58.83867,-1.96646 37.47063,0 53.54685,0.11428 54.86411,0.39015 5.90665,1.2368 10.93163,6.26406 12.19146,12.19697 0.27021,1.27248 0.39565,9.1876 0.39565,24.96482 0,23.1016 0,23.1016 -23.06047,46.13059 -12.68326,12.66595 -23.41801,23.58277 -23.85498,24.2596 -1.30244,2.01734 -15.38834,32.37619 -15.90061,34.27003 -2.19396,8.11086 2.57525,16.81279 10.54043,19.23215 1.98234,0.60211 3.01114,0.70289 5.63869,0.55236 1.8658,-0.10685 3.80391,-0.43777 4.62037,-0.78877 3.30236,-1.4197 31.7036,-14.74276 32.63463,-15.30896 0.56222,-0.3419 2.90314,-2.38848 5.20208,-4.54798 4.17986,-3.92634 4.17986,-3.92634 4.17986,10.14656 0,9.08803 -0.14015,14.73288 -0.39565,15.93611 -1.25983,5.93291 -6.28481,10.96017 -12.19146,12.19697 -1.32032,0.27646 -17.35379,0.38342 -55.02587,0.36702 -44.5888,-0.0194 -53.45954,-0.10313 -55.00347,-0.5189 z m 63.41302,-79.1394 c 1.86839,-0.88662 2.77114,-2.4188 2.77114,-4.7033 0,-1.43736 -0.20131,-2.21604 -0.78418,-3.03317 -1.65538,-2.32072 -0.69986,-2.24088 -26.81666,-2.24088 -26.1168,0 -25.16128,-0.0798 -26.81666,2.24088 -1.09228,1.5313 -1.09439,4.53209 -0.004,6.06036 1.65278,2.31705 0.61216,2.23 26.76778,2.23885 21.13064,0.007 23.80956,-0.0534 24.88284,-0.56274 z m 16.87695,-28.12825 c 1.86838,-0.8866 2.77114,-2.41879 2.77114,-4.70329 0,-1.43736 -0.20132,-2.21605 -0.78419,-3.03318 -1.68426,-2.36119 0.20893,-2.24086 -35.25513,-2.24086 -35.46405,0 -33.57085,-0.1204 -35.25513,2.24086 -1.09228,1.5313 -1.09439,4.5321 -0.004,6.06038 1.68024,2.35554 -0.29399,2.22999 35.20626,2.23883 28.9162,0.007 32.23846,-0.0489 33.3213,-0.56274 z m 16.87694,-28.12824 c 1.86839,-0.8866 2.77114,-2.4188 2.77114,-4.70329 0,-1.43736 -0.20131,-2.21604 -0.78418,-3.03318 -1.70181,-2.38581 1.12439,-2.24087 -43.6936,-2.24087 -44.818,0 -41.99178,-0.14494 -43.69361,2.24087 -1.09228,1.5313 -1.09439,4.5321 -0.004,6.06037 1.69692,2.37891 -1.2062,2.22999 43.64473,2.23886 36.70183,0.007 40.67134,-0.0463 41.75978,-0.56276 z m -24.74501,106.77765 c -0.63026,-0.39575 -1.46973,-1.23523 -1.86549,-1.86548 -1.42281,-2.26586 -1.09042,-3.24601 6.82495,-20.12611 7.25144,-15.46413 7.25144,-15.46413 27.56088,-35.77584 20.30944,-20.31171 20.30944,-20.31171 32.08904,-8.50423 11.77959,11.80747 11.77959,11.80747 -8.43758,31.83918 -16.80611,16.65193 -20.57311,20.21508 -22.32679,21.11865 -1.1603,0.59782 -8.20115,3.93242 -15.64634,7.41021 -14.81526,6.92049 -15.9784,7.2978 -18.19867,5.90362 z m 71.9954,-73.68215 c -11.7733,-11.77724 -11.7733,-11.77724 -7.0301,-16.53781 5.7578,-5.77888 7.25976,-6.66946 11.24787,-6.66946 4.10989,0 5.43095,0.81998 12.02774,7.4655 6.46255,6.51032 7.12008,7.5905 7.12008,11.69687 0,4.01089 -0.71385,5.23504 -6.39801,10.97156 -2.64348,2.66782 -4.89359,4.85058 -5.0003,4.85058 -0.1067,0 -5.49197,-5.29977 -11.96728,-11.77724 z"
       id="path476"
       inkscape:export-filename="redact.in.dark.svg"
       inkscape:export-xdpi="96"
       inkscape:export-ydpi="96" /></g></svg>
