<?xml version="1.0" encoding="UTF-8" standalone="no"?>
<!-- Created with Inkscape (http://www.inkscape.org/) -->

<svg
   width="180.05835mm"
   height="180.00003mm"
   viewBox="0 0 180.05835 180.00003"
   version="1.1"
   id="svg5"
   xml:space="preserve"
   inkscape:version="1.2.2 (732a01da63, 2022-12-09)"
   sodipodi:docname="iconos.svg"
   xmlns:inkscape="http://www.inkscape.org/namespaces/inkscape"
   xmlns:sodipodi="http://sodipodi.sourceforge.net/DTD/sodipodi-0.dtd"
   xmlns="http://www.w3.org/2000/svg"
   xmlns:svg="http://www.w3.org/2000/svg"><sodipodi:namedview
     id="namedview7"
     pagecolor="#ffffff"
     bordercolor="#000000"
     borderopacity="0.25"
     inkscape:showpageshadow="2"
     inkscape:pageopacity="0.0"
     inkscape:pagecheckerboard="0"
     inkscape:deskcolor="#d1d1d1"
     inkscape:document-units="mm"
     showgrid="false"
     inkscape:zoom="0.19242424"
     inkscape:cx="-1811.1024"
     inkscape:cy="9897.4017"
     inkscape:window-width="1920"
     inkscape:window-height="1051"
     inkscape:window-x="-9"
     inkscape:window-y="-9"
     inkscape:window-maximized="1"
     inkscape:current-layer="layer1" /><defs
     id="defs2" /><g
     inkscape:label="Capa 1"
     inkscape:groupmode="layer"
     id="layer1"
     transform="translate(648.36018,-438.3716)"><path
       id="path487"
       style="fill:#ffffff;stroke-width:0.332291"
       d="m -573.67116,438.38035 c -20.34029,0.41849 -40.35017,9.35733 -54.23179,24.23102 -10.5937,11.10222 -17.61003,25.56359 -19.72825,40.76621 -1.90856,13.31916 -0.0398,27.13492 5.25917,39.49695 8.15828,19.31033 24.7852,34.72231 44.4961,41.75633 19.70186,7.10083 42.29293,5.64727 60.93527,-3.89287 3.28743,-1.68562 6.47551,-3.56783 9.51352,-5.6718 7.679,7.12583 14.98937,14.63039 22.50893,21.92124 6.81218,6.6836 13.57024,13.4415 20.74162,19.73972 3.71471,2.63458 9.18501,1.99418 12.41036,-1.13996 2.84941,-2.56046 4.36991,-6.89127 2.88713,-10.5553 -1.22261,-2.97873 -3.77943,-5.07576 -5.88023,-7.41648 -8.77635,-9.03536 -17.89112,-17.73402 -26.8206,-26.61415 -3.50109,-3.44662 -7.00218,-6.89324 -10.50327,-10.33986 9.75599,-12.07686 15.81261,-27.20462 16.57645,-42.74638 1.00071,-17.34245 -4.14067,-35.08334 -14.76966,-48.88307 -12.36976,-16.33136 -31.41614,-27.5543 -51.7943,-30.02009 -3.84494,-0.49224 -7.72478,-0.6854 -11.60045,-0.63151 z m 1.64768,20.86452 c 11.15998,-0.0105 22.43586,3.26252 31.68736,9.62806 10.51409,7.15469 18.61553,18.06526 22.00374,30.41913 3.46555,12.35932 2.30244,25.87813 -3.20516,37.49361 -6.17334,13.04311 -17.69676,23.3883 -31.29087,28.20023 -5.04362,1.81857 -10.35473,2.88187 -15.63271,3.18408 -6.1831,0.32538 -12.43518,-0.35785 -18.38617,-1.93402 -12.45164,-3.27637 -23.52668,-11.30841 -30.85745,-21.81708 -4.82638,-6.98636 -8.10181,-15.10809 -9.1333,-23.55468 -0.3827,-3.55737 -0.45328,-7.25936 -0.26859,-10.87485 0.50003,-10.69248 4.75866,-21.17589 11.38748,-29.59499 8.0771,-10.33309 19.97779,-17.54234 32.83905,-20.05151 3.57329,-0.71239 7.21361,-1.06962 10.85662,-1.09798 z"
       inkscape:export-filename="..\public\images\icons\light\search.in.svg"
       inkscape:export-xdpi="96"
       inkscape:export-ydpi="96" /></g></svg>
