<?xml version="1.0" encoding="UTF-8" standalone="no"?>
<!-- Created with Inkscape (http://www.inkscape.org/) -->

<svg
   width="180mm"
   height="180.00049mm"
   viewBox="0 0 180 180.00049"
   version="1.1"
   id="svg5"
   xml:space="preserve"
   inkscape:version="1.2.2 (732a01da63, 2022-12-09)"
   sodipodi:docname="iconos.svg"
   xmlns:inkscape="http://www.inkscape.org/namespaces/inkscape"
   xmlns:sodipodi="http://sodipodi.sourceforge.net/DTD/sodipodi-0.dtd"
   xmlns="http://www.w3.org/2000/svg"
   xmlns:svg="http://www.w3.org/2000/svg"><sodipodi:namedview
     id="namedview7"
     pagecolor="#ffffff"
     bordercolor="#000000"
     borderopacity="0.25"
     inkscape:showpageshadow="2"
     inkscape:pageopacity="0.0"
     inkscape:pagecheckerboard="0"
     inkscape:deskcolor="#d1d1d1"
     inkscape:document-units="mm"
     showgrid="false"
     inkscape:zoom="0.09621212"
     inkscape:cx="-5264.4095"
     inkscape:cy="14327.717"
     inkscape:window-width="1920"
     inkscape:window-height="1051"
     inkscape:window-x="-9"
     inkscape:window-y="-9"
     inkscape:window-maximized="1"
     inkscape:current-layer="layer1" /><defs
     id="defs2" /><g
     inkscape:label="Capa 1"
     inkscape:groupmode="layer"
     id="layer1"
     transform="translate(601.22621,-5175.4042)"><path
       style="fill:#ffffff;stroke-width:0.399211"
       d="m -593.87789,5354.7721 c -2.30989,-0.8079 -4.81508,-3.0453 -6.10073,-5.449 l -1.08942,-2.0367 -0.12269,-11.8153 c -0.1434,-13.8195 0.0217,-14.8339 2.93023,-18.0241 0.99371,-1.09 2.66803,-2.4037 3.72074,-2.9193 1.8295,-0.8963 2.2869,-0.9377 10.35629,-0.9377 8.43336,0 8.44468,0 10.73547,1.1105 2.63201,1.2745 4.06517,2.7814 5.4304,5.7096 0.95952,2.0582 0.96146,2.0922 0.84025,14.6678 -0.11618,12.0526 -0.15963,12.6743 -0.99199,14.1906 -1.1713,2.1338 -3.56134,4.3408 -5.76282,5.3213 -1.63613,0.7289 -2.59679,0.8037 -10.05028,0.7833 -6.15127,-0.017 -8.66081,-0.1692 -9.89545,-0.601 z m 48.78943,0.089 c -3.23189,-1.1675 -6.21233,-4.301 -7.09306,-7.4572 -0.35425,-1.2694 -0.44574,-11.2035 -0.35917,-38.968 l 0.11629,-37.2641 1.24723,-2.1804 c 1.4965,-2.6163 3.87877,-4.5205 6.68276,-5.3416 2.90074,-0.8494 15.00865,-0.8494 17.90927,0 3.03269,0.8881 5.28757,2.7695 6.82159,5.6915 l 1.30943,2.4943 v 37.2147 c 0,36.1845 -0.0217,37.2731 -0.80023,39.3237 -0.86209,2.2722 -3.2431,4.8524 -5.632,6.1035 -1.22618,0.6422 -2.518,0.7492 -10.0504,0.8327 -6.53297,0.072 -9.01152,-0.038 -10.15171,-0.4491 z m 49.12357,0.1894 c -3.1443,-0.9831 -6.09054,-3.7089 -7.21656,-6.6765 -0.77026,-2.0302 -0.80022,-3.1231 -0.80022,-29.2346 0,-26.2962 0.025,-27.1913 0.8168,-29.2783 0.98514,-2.5963 3.78753,-5.3542 6.46505,-6.3626 1.57907,-0.5947 3.02,-0.6722 10.44102,-0.562 8.55594,0.1272 8.62067,0.1348 10.48493,1.2154 2.51525,1.4581 4.64595,3.9978 5.36945,6.4004 0.88427,2.936 0.88427,54.2382 0,57.1744 -0.7235,2.4026 -2.8542,4.9422 -5.36945,6.4004 -1.87398,1.0862 -1.88427,1.0873 -10.51912,1.1661 -4.7539,0.044 -9.10621,-0.065 -9.6719,-0.2427 z m 47.46125,-0.4612 c -2.20148,-0.9805 -4.59152,-3.1875 -5.76281,-5.3213 l -0.87044,-1.5857 -0.10635,-57.6332 -0.1052,-57.6331 0.94614,-2.0291 c 1.34945,-2.8946 2.79073,-4.4055 5.41462,-5.6761 2.29079,-1.1092 2.30211,-1.1103 10.73547,-1.1103 8.06942,0 8.52682,0.041 10.35627,0.9376 2.64782,1.2972 5.37805,4.3941 6.13377,6.9576 0.53017,1.7984 0.59304,9.1998 0.50044,58.9234 l -0.10589,56.8668 -1.08947,2.0367 c -0.59921,1.1203 -1.84141,2.6715 -2.76047,3.4472 -2.78476,2.3506 -4.27805,2.6439 -13.40778,2.6342 -7.23977,-0.012 -8.25509,-0.092 -9.87818,-0.8147 z m -137.89069,-95.1611 c -2.60628,-1.0249 -3.99404,-3.8461 -3.24218,-6.5912 0.33687,-1.2299 4.41782,-5.4305 23.63388,-24.3268 25.34629,-24.9245 24.82771,-24.4916 30.43375,-25.4076 2.04402,-0.334 3.34556,-0.3239 5.35893,0.041 2.77792,0.5049 3.68621,0.8973 26.12433,11.2919 15.02763,6.9617 15.60201,7.1188 18.43585,5.0415 0.86232,-0.6321 11.06537,-10.5446 22.67357,-22.0274 11.60819,-11.483 21.59421,-21.1341 22.19135,-21.447 3.0623,-1.6051 7.07811,0.1667 7.9959,3.5278 0.86898,3.1823 1.01568,3.0128 -23.45028,27.0867 -19.32595,19.0163 -22.96745,22.4263 -25.02862,23.4367 -4.59358,2.2522 -9.00798,2.5506 -13.59801,0.9191 -1.14431,-0.4067 -9.79803,-4.3282 -19.23047,-8.7144 -18.11601,-8.4243 -19.02533,-8.7366 -21.56391,-7.406 -0.59703,0.3129 -10.94497,10.3144 -22.99535,22.2256 -12.05039,11.9111 -22.39822,21.9126 -22.99536,22.2255 -1.23899,0.6494 -3.27157,0.7024 -4.74338,0.1237 z"
       id="path458" /></g></svg>
