<?xml version="1.0" encoding="UTF-8" standalone="no"?>
<!-- Created with Inkscape (http://www.inkscape.org/) -->

<svg
   width="180mm"
   height="180.00024mm"
   viewBox="0 0 180 180.00024"
   version="1.1"
   id="svg5"
   xml:space="preserve"
   inkscape:version="1.2.2 (732a01da63, 2022-12-09)"
   sodipodi:docname="iconos.svg"
   xmlns:inkscape="http://www.inkscape.org/namespaces/inkscape"
   xmlns:sodipodi="http://sodipodi.sourceforge.net/DTD/sodipodi-0.dtd"
   xmlns="http://www.w3.org/2000/svg"
   xmlns:svg="http://www.w3.org/2000/svg"><sodipodi:namedview
     id="namedview7"
     pagecolor="#ffffff"
     bordercolor="#000000"
     borderopacity="0.25"
     inkscape:showpageshadow="2"
     inkscape:pageopacity="0.0"
     inkscape:pagecheckerboard="0"
     inkscape:deskcolor="#d1d1d1"
     inkscape:document-units="mm"
     showgrid="false"
     inkscape:zoom="0.19242424"
     inkscape:cx="-3021.9685"
     inkscape:cy="10869.213"
     inkscape:window-width="1920"
     inkscape:window-height="1051"
     inkscape:window-x="-9"
     inkscape:window-y="-9"
     inkscape:window-maximized="1"
     inkscape:current-layer="layer1" /><defs
     id="defs2" /><g
     inkscape:label="Capa 1"
     inkscape:groupmode="layer"
     id="layer1"
     transform="translate(645.16164,-3372.5729)"><path
       style="fill:#ffffff;stroke-width:0.351915"
       d="m -569.07194,3552.4417 c -8.81533,-1.1985 -20.26259,-4.9117 -28.67946,-9.3028 -24.03872,-12.5413 -41.15947,-35.4333 -46.41973,-62.0677 -1.20976,-6.1251 -1.27241,-7.5811 -0.40006,-9.2914 0.55234,-1.0826 1.17026,-1.6805 2.23785,-2.1654 1.3526,-0.6141 2.43229,-0.6702 13.0108,-0.6774 12.3724,-0.013 12.98114,0.068 14.58937,1.8142 0.45592,0.4952 1.02649,1.888 1.35221,3.3008 1.17505,5.0985 2.34651,8.8976 3.80764,12.3491 7.44504,17.5859 23.84959,30.794 42.55104,34.2596 2.69975,0.5004 4.26369,1.5584 5.03602,3.4072 0.37227,0.8909 0.48,3.7345 0.48,12.6631 0,10.9068 -0.0386,11.5931 -0.72485,13.0119 -1.13103,2.3366 -3.27697,3.1832 -6.84083,2.6988 z m 22.26118,-0.4551 c -0.78775,-0.429 -1.59971,-1.2732 -2.02345,-2.1039 -0.66673,-1.307 -0.70756,-2.0606 -0.70756,-13.0265 0,-15.303 -0.16984,-14.9075 7.1043,-16.5462 11.30735,-2.5473 20.57329,-7.6183 28.61297,-15.659 4.77149,-4.7721 7.93687,-9.1704 10.89119,-15.1332 3.85751,-7.7861 5.67881,-14.7675 6.06797,-23.2603 0.5679,-12.3925 -2.69324,-24.0036 -9.81443,-34.9428 -1.84697,-2.837 -2.1905,-4.7615 -1.18875,-6.6591 0.27597,-0.5227 4.27447,-4.6995 8.88543,-9.2818 9.16392,-9.1069 9.47075,-9.314 12.46816,-8.4159 1.62938,0.4883 2.98903,2.0827 7.07903,8.3009 4.73983,7.2059 8.75282,16.0888 11.04307,24.4435 7.37669,26.91 1.97265,55.5119 -14.67329,77.6616 -13.15564,17.5051 -32.35943,29.7259 -53.52323,34.0604 -6.44475,1.32 -8.61158,1.4391 -10.22141,0.5623 z m -47.85758,-63.7226 c -0.80412,-0.4246 -1.59094,-1.2343 -2.02346,-2.0821 -0.6868,-1.3464 -0.70769,-2.0413 -0.70769,-23.5875 0,-21.3797 0.0253,-22.2503 0.692,-23.5567 0.47414,-0.9294 1.17399,-1.59 2.22255,-2.0977 1.37588,-0.6661 2.14768,-0.7409 7.64229,-0.7409 5.45217,0 6.27358,0.079 7.60942,0.7251 1.08728,0.5263 1.69615,1.1353 2.22256,2.2227 0.70822,1.4631 0.72485,2.0035 0.72485,23.4475 0,21.5969 -0.0133,21.9745 -0.74081,23.4805 -1.26695,2.6175 -2.29118,2.9177 -9.88997,2.8994 -5.71047,-0.013 -6.58441,-0.094 -7.75174,-0.7103 z m 31.67049,0 c -0.80412,-0.4246 -1.59094,-1.2343 -2.02345,-2.0821 -0.69107,-1.3548 -0.70769,-2.0316 -0.70769,-28.8926 v -27.5053 l 0.7686,-1.3677 c 1.35021,-2.4025 2.66531,-2.7753 9.78823,-2.7753 5.45217,0 6.27358,0.078 7.60943,0.725 1.08727,0.5264 1.69614,1.1353 2.22255,2.2227 0.71274,1.4728 0.72485,1.9522 0.72485,28.7267 0,26.9639 -0.0133,27.2438 -0.74081,28.7595 -1.26695,2.6175 -2.29118,2.9177 -9.88997,2.8994 -5.71047,-0.013 -6.5844,-0.094 -7.75174,-0.7103 z m 31.67049,0 c -0.80411,-0.4246 -1.59094,-1.2343 -2.02345,-2.0821 -0.66686,-1.3073 -0.70769,-2.0606 -0.70769,-13.0554 0,-11.3438 0.0213,-11.706 0.7686,-13.0357 1.35021,-2.4026 2.66518,-2.7754 9.78823,-2.7754 5.45218,0 6.27358,0.079 7.60943,0.7251 1.08727,0.5263 1.69614,1.1353 2.22255,2.2227 0.68614,1.4176 0.72485,2.1061 0.72485,12.8893 0,10.8627 -0.0346,11.463 -0.74081,12.9224 -1.26695,2.6175 -2.29118,2.9177 -9.88997,2.8994 -5.71047,-0.013 -6.5844,-0.094 -7.75174,-0.7103 z m -111.1987,-32.0264 c -1.98076,-1.0459 -2.87146,-3.0372 -2.57553,-5.7586 0.69904,-6.43 3.32817,-16.049 6.37333,-23.3185 8.52353,-20.3468 25.70653,-37.8752 45.8469,-46.7685 29.35204,-12.961 62.7627,-9.6534 88.55794,8.7671 3.49629,2.4965 4.36145,3.3695 4.80394,4.8468 0.87154,2.9092 0.62629,3.2693 -8.43788,12.3926 -4.5817,4.6115 -8.75802,8.6103 -9.28071,8.8864 -1.89723,1.0018 -3.82147,0.6583 -6.65835,-1.1888 -6.13326,-3.9938 -11.78268,-6.5018 -18.38717,-8.1631 -16.30799,-4.1022 -33.8151,-0.7723 -47.71687,9.0757 -4.29282,3.041 -10.44857,9.191 -13.46034,13.4477 -4.47583,6.3259 -8.128,14.7932 -9.61852,22.2997 -0.4377,2.2043 -0.88179,3.431 -1.5146,4.1831 -1.65331,1.9652 -2.10259,2.0257 -14.90458,2.0087 -10.96461,-0.015 -11.79572,-0.06 -13.02756,-0.7103 z"
       id="path402" /></g></svg>
