<?xml version="1.0" encoding="UTF-8" standalone="no"?>
<!-- Created with Inkscape (http://www.inkscape.org/) -->

<svg
   width="180mm"
   height="176.95654mm"
   viewBox="0 0 180 176.95654"
   version="1.1"
   id="svg5"
   xml:space="preserve"
   inkscape:version="1.2.2 (732a01da63, 2022-12-09)"
   sodipodi:docname="iconos.svg"
   xmlns:inkscape="http://www.inkscape.org/namespaces/inkscape"
   xmlns:sodipodi="http://sodipodi.sourceforge.net/DTD/sodipodi-0.dtd"
   xmlns="http://www.w3.org/2000/svg"
   xmlns:svg="http://www.w3.org/2000/svg"><sodipodi:namedview
     id="namedview7"
     pagecolor="#ffffff"
     bordercolor="#000000"
     borderopacity="0.25"
     inkscape:showpageshadow="2"
     inkscape:pageopacity="0.0"
     inkscape:pagecheckerboard="0"
     inkscape:deskcolor="#d1d1d1"
     inkscape:document-units="mm"
     showgrid="false"
     inkscape:zoom="0.19242424"
     inkscape:cx="-3021.9685"
     inkscape:cy="10869.213"
     inkscape:window-width="1920"
     inkscape:window-height="1051"
     inkscape:window-x="-9"
     inkscape:window-y="-9"
     inkscape:window-maximized="1"
     inkscape:current-layer="layer1" /><defs
     id="defs2" /><g
     inkscape:label="Capa 1"
     inkscape:groupmode="layer"
     id="layer1"
     transform="translate(637.24605,-4020.3544)"><path
       id="path665"
       style="fill:#000000;stroke-width:0.370565"
       d="m -633.12548,4020.4095 c -1.62834,0.1246 -3.38035,1.1962 -3.73628,2.8655 -0.37786,3.4104 -0.25176,6.8523 -0.3256,10.2779 -0.0756,11.156 -0.10179,22.3139 0.0683,33.469 0.0881,1.3053 0.0265,2.6751 0.46745,3.9176 0.60713,1.0227 1.87499,1.3003 2.83119,1.8906 7.14246,3.5914 14.5097,6.7063 21.77859,10.0293 3.50778,4.4954 7.26231,8.9045 11.9802,12.1788 5.19017,3.6873 11.4067,5.8765 17.75526,6.3109 0.93421,0.02 1.80479,0.4569 2.32631,1.2375 1.8112,2.1298 4.25542,3.833 7.07056,4.2368 2.26959,0.4048 4.56928,-0.012 6.81797,-0.3134 1.13148,0.1821 1.95193,1.0947 3.13643,1.2105 3.24667,0.6826 6.53216,-0.1829 9.75193,-0.6036 0.45969,-0.067 1.03897,-0.3152 1.30968,0.2278 8.00886,7.9995 15.86841,16.1551 24.11085,23.9159 1.06505,0.9953 2.90034,1.0233 3.91062,-0.07 6.89722,-6.3741 13.52033,-13.041 20.09214,-19.7479 2.13343,-2.2987 4.51106,-4.5531 5.71256,-7.512 0.7803,-2.2797 0.56731,-4.7409 0.45102,-7.1034 -0.60251,-4.2426 -3.53658,-7.9022 -7.16356,-10.044 -1.82936,-1.0858 -3.92812,-1.7027 -6.06134,-1.6815 -2.87109,-0.1423 -5.8811,0.3146 -8.27561,2.0078 -1.96005,1.3035 -3.57845,3.0311 -5.26704,4.6533 2.66746,-3.6724 3.28457,-8.7121 1.55158,-12.9124 -0.24927,-0.5966 -0.46215,-1.2511 -0.17148,-1.873 1.0663,-4.4417 1.98565,-9.1791 0.63668,-13.6679 -0.97551,-3.4553 -3.36922,-6.2246 -5.65051,-8.8971 -3.36305,-3.993 -6.75732,-7.9764 -10.49304,-11.6297 -2.23101,-2.084 -5.03676,-3.6609 -8.11835,-3.9441 -4.13458,-0.5393 -8.3173,-0.2543 -12.47396,-0.2711 -11.82939,0.14 -23.65632,0.4244 -35.48374,0.6735 -12.54412,-6.2219 -24.99816,-12.6249 -37.66153,-18.5993 -0.39325,-0.165 -0.34501,-0.3945 -0.87725,-0.232 z m 19.52608,18.2716 c 5.79015,2.8711 11.57977,5.7432 17.37025,8.6137 15.38605,-0.2796 30.77034,-0.7716 46.16004,-0.7686 1.35971,0.012 2.6557,0.033 3.94154,0.6469 1.6825,0.607 2.70001,2.1404 3.93675,3.3316 3.73439,3.9638 7.33351,8.0622 10.72798,12.3207 1.50046,1.8046 2.0089,4.3277 1.82735,6.5567 -0.0668,0.7738 -0.2025,1.5423 -0.41688,2.289 -2.18761,-0.6075 -4.39855,-1.1257 -6.59491,-1.7004 0.1901,-1.536 0.83868,-3.2871 -0.18827,-4.6799 -1.31764,-2.2664 -5.09809,-2.5292 -6.54174,-0.261 -0.6495,0.9886 -0.766,2.1943 -1.12906,3.2945 -0.90086,-0.2134 -1.78851,-0.2429 -2.63256,-0.66 -1.47043,-3.0153 -2.25165,-6.3716 -4.09224,-9.1967 -1.90864,-2.0442 -5.94162,-1.0549 -6.54604,1.7174 -0.43995,1.9247 0.56904,3.7476 1.19852,5.503 -2.09973,-0.3157 -4.23175,-1.0632 -6.36716,-0.6678 -2.38331,0.6443 -3.61786,3.8629 -2.08829,5.8634 1.0241,1.3644 2.85332,1.5142 4.3484,1.9753 9.19822,2.3197 18.56096,3.8866 27.70163,6.3971 2.3549,0.6706 3.49749,3.464 3.02903,5.7305 -0.30355,1.8322 -1.7668,3.3928 -3.52119,3.9313 -1.63131,0.2989 -3.30499,0 -4.94646,-0.09 -6.77706,-0.7051 -13.59245,-1.6777 -20.40059,-2.333 -0.8886,-0.1246 -1.78396,-0.1826 -2.63331,0.1613 -3.30787,1.1309 -6.33892,2.9228 -9.54069,4.3091 -2.93713,1.3378 -6.07117,2.4332 -9.34032,2.3819 -4.19841,-4e-4 -8.34758,-1.1799 -12.10675,-3.0047 -4.30045,-2.1063 -7.68036,-5.6131 -10.6999,-9.251 -1.41287,-1.5854 -2.70539,-3.3058 -4.30796,-4.7057 -1.25357,-0.859 -2.68862,-1.2902 -4.02477,-1.9922 -5.83505,-2.6932 -11.70565,-5.3075 -17.56455,-7.9487 -0.0605,-11.8375 -0.12095,-23.675 -0.18142,-35.5125 5.20786,2.583 10.41571,5.1661 15.62357,7.7491 z m 101.94984,54.2414 c 3.21205,0.041 6.22432,2.7958 6.28203,6.0598 0.27982,1.5961 -0.58848,3.0604 -1.62029,4.1971 -2.86304,3.439 -6.14898,6.4926 -9.26499,9.6965 -3.14769,3.1698 -6.30295,6.3324 -9.51876,9.4332 -5.98948,-5.8385 -11.91333,-11.7272 -17.68061,-17.7748 -1.14366,-1.2466 -2.50978,-2.549 -2.62545,-4.3422 -0.15963,-1.3879 -0.0701,-2.9528 0.75295,-4.1216 3.7515,0.4319 7.55911,1.1374 11.37172,1.0923 1.06582,-0.3306 1.72939,0.7744 2.43776,1.3517 1.48584,1.4168 2.81369,3.1703 4.76511,3.9617 1.73742,0.4883 3.32636,-0.7203 4.5058,-1.8514 2.71549,-2.405 5.12124,-5.2476 8.12819,-7.2376 0.77444,-0.3379 1.62505,-0.4725 2.46654,-0.4647 z m -47.19883,1.575 c 1.74466,0.1318 3.47907,0.3646 5.21494,0.579 -0.26404,1.3327 -0.4251,2.6831 -0.61568,4.028 -2.29442,0.3269 -4.59189,1.0385 -6.92635,0.7967 -1.0941,-0.3885 -1.55225,-1.6963 -1.61981,-2.7615 0.23254,-1.3478 1.6349,-2.0258 2.76759,-2.5186 0.38014,-0.1175 0.78349,-0.1489 1.17931,-0.1236 z m 60.3539,32.1542 c -3.00731,-0.071 -6.00755,0.4599 -8.81976,1.5213 -4.38913,1.5154 -8.47383,3.9034 -11.94348,6.9882 -0.59708,0.314 -1.31456,0.024 -1.96555,0.1223 -8.43604,0.039 -16.87532,-0.1031 -25.30898,0.129 -2.81996,0.1034 -5.91762,0.2524 -8.1847,2.155 -2.31365,1.7722 -4.13315,4.2568 -4.99993,7.0412 -0.83262,-0.1638 -1.83254,-0.5802 -2.72939,-0.841 -7.91416,-2.5628 -15.81127,-5.2167 -23.71392,-7.8384 -3.23999,0.1427 -6.73088,0.1534 -9.52981,2.033 -2.40936,1.5756 -4.30729,3.9817 -5.21753,6.7158 -0.76174,2.6457 -0.68986,5.487 -0.15069,8.1662 0.74995,3.0617 3.00287,5.5536 5.6845,7.11 11.71226,7.8552 23.63217,15.3919 35.525,22.9714 6.0824,3.8457 12.14706,7.7261 18.35612,11.363 3.64909,1.9179 7.74709,3.0549 11.88453,3.0213 2.34287,0.01 4.692,-0.081 7.02897,-0.1496 3.50522,-0.8046 6.95911,-1.825 10.44603,-2.7091 12.16015,-3.2147 24.3203,-6.4294 36.48046,-9.644 4.99043,-0.051 9.98945,0.1222 14.97398,-0.1372 1.12871,-0.096 2.04823,-0.8172 2.75393,-1.6501 0.60909,-0.4079 0.75896,-1.145 0.64208,-1.8234 0,-14.4946 0,-28.9893 0,-43.4839 -1.00855,-0.9973 -2.03476,-2.3539 -3.60949,-2.3 -4.01216,-0.2573 -8.03637,-0.068 -12.05384,-0.1299 -0.66944,-0.036 -1.43537,0.1948 -1.88726,-0.4426 -2.95709,-2.5089 -6.27599,-4.5976 -9.8902,-6.0209 -3.1247,-1.2923 -6.45862,-2.2077 -9.86388,-2.1576 -1.30215,-0.024 -2.60489,-0.01 -3.90719,-0.01 z m 1.63087,7.9653 c 4.71171,-0.07 9.51229,1.0891 13.4209,3.7876 2.12107,1.4036 4.02121,3.1031 5.98938,4.7064 4.04982,0.075 8.09968,0.1477 12.14953,0.2219 0,11.1511 0,22.3021 0,33.4532 -3.78081,0.012 -7.56785,-0.035 -11.34471,0.035 -15.95116,4.1583 -31.84853,8.5102 -47.87818,12.3366 -1.8323,0.3921 -3.80589,0.7047 -5.70038,0.2906 -3.18574,-0.4365 -6.28987,-1.2775 -9.01433,-3.0844 -8.66469,-5.2201 -17.1293,-10.7625 -25.68139,-16.1627 -8.37539,-5.3464 -16.81326,-10.6015 -25.04534,-16.168 -1.4065,-1.018 -3.20382,-1.9969 -3.52092,-3.8738 -0.5924,-2.4801 0.92881,-5.2214 3.36265,-6.0041 1.4634,-0.5928 2.94825,0.1568 4.36397,0.5084 6.1083,1.8458 12.19476,3.9954 18.29518,5.9885 2.79595,0.962 5.63273,1.8469 8.3371,3.0452 0.73194,0.3921 0.83243,1.2971 1.41101,1.8488 1.5436,1.9219 3.56871,3.4711 5.80811,4.4915 2.57332,0.9918 5.38858,0.694 8.08714,0.8231 9.28479,0.074 18.56995,0.042 27.85493,0.045 1.12455,-1.2686 2.61866,-2.7146 2.27936,-4.5818 -0.1977,-1.2323 -1.1444,-2.1252 -1.88177,-3.0611 -10.51441,-0.1647 -21.03426,-0.1357 -31.54437,-0.4767 -1.44291,4e-4 -2.99876,-0.3871 -3.87495,-1.6308 -1.56013,-1.9028 -1.37493,-4.974 0.51891,-6.5901 0.61301,-0.6329 1.42384,-0.8941 2.22803,-0.9223 4.13386,-0.2695 8.28338,-0.2114 12.42435,-0.305 6.50157,-0.082 13.00331,-0.1498 19.50497,-0.2231 3.5005,-2.8548 6.99749,-6.0016 11.41571,-7.3815 2.58636,-0.8429 5.32672,-1.1048 8.03511,-1.1164 z" /></g></svg>
