<?xml version="1.0" encoding="UTF-8" standalone="no"?>
<!-- Created with Inkscape (http://www.inkscape.org/) -->

<svg
   width="180mm"
   height="179.99976mm"
   viewBox="0 0 180 179.99976"
   version="1.1"
   id="svg5"
   xml:space="preserve"
   inkscape:version="1.2.2 (732a01da63, 2022-12-09)"
   sodipodi:docname="iconos.svg"
   xmlns:inkscape="http://www.inkscape.org/namespaces/inkscape"
   xmlns:sodipodi="http://sodipodi.sourceforge.net/DTD/sodipodi-0.dtd"
   xmlns="http://www.w3.org/2000/svg"
   xmlns:svg="http://www.w3.org/2000/svg"><sodipodi:namedview
     id="namedview7"
     pagecolor="#ffffff"
     bordercolor="#000000"
     borderopacity="0.25"
     inkscape:showpageshadow="2"
     inkscape:pageopacity="0.0"
     inkscape:pagecheckerboard="0"
     inkscape:deskcolor="#d1d1d1"
     inkscape:document-units="mm"
     showgrid="false"
     inkscape:zoom="0.19242424"
     inkscape:cx="-3131.1024"
     inkscape:cy="7111.8899"
     inkscape:window-width="1920"
     inkscape:window-height="1051"
     inkscape:window-x="-9"
     inkscape:window-y="-9"
     inkscape:window-maximized="1"
     inkscape:current-layer="layer1" /><defs
     id="defs2" /><g
     inkscape:label="Capa 1"
     inkscape:groupmode="layer"
     id="layer1"
     transform="translate(625.14693,-2365.9003)"><path
       style="fill:#000000;stroke-width:0.352102"
       d="m -608.79325,2545.3732 c -6.11915,-1.6838 -11.60811,-6.4526 -14.36535,-12.4805 -2.13556,-4.6688 -2.04912,-1.8755 -1.94597,-62.8631 l 0.094,-55.7728 0.82507,-2.4673 c 2.49682,-7.467 8.36395,-13.0878 15.88163,-15.215 2.14326,-0.6064 4.33034,-0.6468 34.9962,-0.6468 h 32.70997 l 1.66135,0.9787 c 2.95953,1.7435 4.35465,5.2594 3.41763,8.6134 -0.58366,2.089 -2.76404,4.3549 -4.76804,4.9549 -1.09819,0.3289 -8.97683,0.4336 -32.63344,0.4336 -34.1074,0 -32.5539,-0.091 -34.80041,2.0454 -0.54965,0.5229 -1.30289,1.5421 -1.67395,2.2649 -0.6575,1.2811 -0.6722,2.6967 -0.58326,56.279 l 0.091,54.9648 1.05517,1.5013 c 0.58026,0.8257 1.75269,1.8704 2.60527,2.3215 l 1.55009,0.8202 h 54.47534 c 52.91364,0 54.51276,-0.019 55.78033,-0.6728 0.71772,-0.37 1.73178,-1.1233 2.25351,-1.6743 2.13216,-2.2514 2.04102,-0.6945 2.04102,-34.876 0,-23.708 0.10444,-31.6036 0.43259,-32.7042 0.59877,-2.0083 2.85968,-4.1935 4.94422,-4.7784 3.46655,-0.9727 7.07087,0.5543 8.67269,3.674 l 0.8986,1.7501 v 32.614 c 0,30.485 -0.042,32.7616 -0.64058,34.877 -1.12181,3.9624 -2.98274,7.1601 -5.90445,10.1454 -2.51393,2.5686 -5.20044,4.2797 -8.55914,5.4515 l -2.83357,0.9885 -56.97867,-0.027 c -46.53908,-0.022 -57.2939,-0.1136 -58.69933,-0.5003 z m 49.31752,-63.8666 c -1.03776,-0.6453 -1.69736,-1.8264 -1.69736,-3.0395 0,-1.1176 5.19593,-27.0111 5.63723,-28.0926 0.20039,-0.4913 13.8127,-14.3701 30.24957,-30.8418 l 29.88511,-29.9484 13.27666,13.3055 13.27665,13.3055 -29.8836,29.95 c -16.43598,16.4725 -30.28459,30.1144 -30.77481,30.3153 -1.16813,0.4787 -26.9771,5.6523 -28.13632,5.64 -0.49092,-0.01 -1.31579,-0.2725 -1.83313,-0.594 z m 85.17872,-86.6351 -13.18482,-13.2171 5.62463,-5.6601 c 3.09348,-3.1131 6.57415,-6.2898 7.73487,-7.0592 9.28166,-6.1528 22.23277,-2.5891 27.00181,7.4297 2.10585,4.4238 2.49562,8.2264 1.31679,12.8454 -1.10639,4.3354 -2.34225,6.1073 -8.9263,12.7978 -3.29108,3.3443 -6.07333,6.0804 -6.18288,6.0804 -0.10965,0 -6.13245,-5.9476 -13.3841,-13.2169 z"
       id="path1638" /></g></svg>
