<?xml version="1.0" encoding="UTF-8" standalone="no"?>
<!-- Created with Inkscape (http://www.inkscape.org/) -->

<svg
   width="180mm"
   height="180mm"
   viewBox="0 0 180 180"
   version="1.1"
   id="svg5"
   xml:space="preserve"
   xmlns="http://www.w3.org/2000/svg"
   xmlns:svg="http://www.w3.org/2000/svg"><defs
     id="defs2" /><g
     id="layer1"
     transform="translate(585.68538,-5431.4041)"><path
       style="fill:#000000;stroke-width:0.433659"
       d="m -581.74869,5610.9545 c -1.79645,-0.8155 -3.56864,-3.0201 -3.91571,-4.8711 -0.21155,-1.1285 1.15099,-8.2359 5.21564,-27.2057 3.02625,-14.1227 5.63547,-26.1188 5.79851,-26.6581 0.16387,-0.5389 25.56138,-26.2693 56.44082,-57.1782 40.19563,-40.2343 56.94487,-56.7224 58.96237,-58.0432 6.23767,-4.0836 11.55949,-5.6265 19.2934,-5.5932 3.86933,0.016 6.07806,0.2569 8.61829,0.9377 11.90574,3.191 20.82603,11.8655 24.36632,23.6949 1.61259,5.3883 1.71861,13.4412 0.24563,18.6517 -1.38564,4.902 -3.56864,9.2108 -6.52754,12.8844 -3.99911,4.9651 -111.92959,112.5983 -113.19757,112.8857 -12.37931,2.8067 -50.21856,10.7754 -51.81018,10.9107 -1.30583,0.1115 -2.69344,-0.054 -3.48998,-0.4156 z m 30.56351,-19.367 c 9.98491,-2.1471 18.31595,-3.9037 18.51357,-3.9037 0.52174,0 82.52935,-82.1082 82.52935,-82.6305 0,-0.2417 -6.53622,-6.9766 -14.52494,-14.9664 l -14.52511,-14.5268 -41.33826,41.3559 -41.33841,41.3558 -3.80494,17.7937 c -2.09271,9.7865 -3.90079,18.1609 -4.01812,18.6098 -0.11798,0.4488 -0.0852,0.8162 0.0705,0.8162 0.15568,0 8.45246,-1.7568 18.43721,-3.904 z m 129.44637,-116.3898 c 8.80329,-17.8205 -9.49136,-36.4575 -27.51088,-28.0256 -2.36981,1.109 -4.10988,2.6168 -11.48936,9.9557 l -8.69661,8.649 14.74108,14.7849 14.74092,14.785 8.32202,-8.4846 c 7.14728,-7.2869 8.54373,-8.9335 9.89283,-11.6644 z"
       id="path1028" /><path
       style="fill:#ffffff;stroke-width:0.433659"
       d="m -581.74869,5782.8295 c -1.79645,-0.8155 -3.56864,-3.0201 -3.91571,-4.8711 -0.21155,-1.1285 1.15099,-8.2359 5.21564,-27.2057 3.02625,-14.1227 5.63547,-26.1188 5.79851,-26.6581 0.16387,-0.5389 25.56138,-26.2693 56.44082,-57.1782 40.19563,-40.2343 56.94487,-56.7224 58.96237,-58.0432 6.23767,-4.0836 11.55949,-5.6265 19.2934,-5.5932 3.86933,0.016 6.07806,0.2569 8.61829,0.9377 11.90574,3.191 20.82603,11.8655 24.36632,23.6949 1.61259,5.3883 1.71861,13.4412 0.24563,18.6517 -1.38564,4.902 -3.56864,9.2108 -6.52754,12.8844 -3.99911,4.9651 -111.92959,112.5983 -113.19757,112.8857 -12.37931,2.8067 -50.21856,10.7754 -51.81018,10.9107 -1.30583,0.1115 -2.69344,-0.054 -3.48998,-0.4156 z m 30.56351,-19.367 c 9.98491,-2.1471 18.31595,-3.9037 18.51357,-3.9037 0.52174,0 82.52935,-82.1082 82.52935,-82.6305 0,-0.2417 -6.53622,-6.9766 -14.52494,-14.9664 l -14.52511,-14.5268 -41.33826,41.3559 -41.33841,41.3558 -3.80494,17.7937 c -2.09271,9.7865 -3.90079,18.1609 -4.01812,18.6098 -0.11798,0.4488 -0.0852,0.8162 0.0705,0.8162 0.15568,0 8.45246,-1.7568 18.43721,-3.904 z m 129.44637,-116.3898 c 8.80329,-17.8205 -9.49136,-36.4575 -27.51088,-28.0256 -2.36981,1.109 -4.10988,2.6168 -11.48936,9.9557 l -8.69661,8.649 14.74108,14.7849 14.74092,14.785 8.32202,-8.4846 c 7.14728,-7.2869 8.54373,-8.9335 9.89283,-11.6644 z"
       id="path1034" /></g></svg>
