<?xml version="1.0" encoding="UTF-8" standalone="no"?>
<!-- Created with Inkscape (http://www.inkscape.org/) -->

<svg
   width="180mm"
   height="127.54956mm"
   viewBox="0 0 180 127.54956"
   version="1.1"
   id="svg5"
   xml:space="preserve"
   inkscape:version="1.2.2 (732a01da63, 2022-12-09)"
   sodipodi:docname="iconos.svg"
   xmlns:inkscape="http://www.inkscape.org/namespaces/inkscape"
   xmlns:sodipodi="http://sodipodi.sourceforge.net/DTD/sodipodi-0.dtd"
   xmlns="http://www.w3.org/2000/svg"
   xmlns:svg="http://www.w3.org/2000/svg"><sodipodi:namedview
     id="namedview7"
     pagecolor="#ffffff"
     bordercolor="#000000"
     borderopacity="0.25"
     inkscape:showpageshadow="2"
     inkscape:pageopacity="0.0"
     inkscape:pagecheckerboard="0"
     inkscape:deskcolor="#d1d1d1"
     inkscape:document-units="mm"
     showgrid="false"
     inkscape:zoom="0.19242424"
     inkscape:cx="-3021.9685"
     inkscape:cy="10869.213"
     inkscape:window-width="1920"
     inkscape:window-height="1051"
     inkscape:window-x="-9"
     inkscape:window-y="-9"
     inkscape:window-maximized="1"
     inkscape:current-layer="layer1" /><defs
     id="defs2" /><g
     inkscape:label="Capa 1"
     inkscape:groupmode="layer"
     id="layer1"
     transform="translate(646.18422,-3617.2877)"><path
       style="fill:#000000;stroke-width:0.351459"
       d="m -597.51301,3744.59 c -1.86674,-0.3741 -2.63418,-0.7885 -4.37835,-2.3643 -1.62345,-1.4666 -2.64145,-3.2903 -2.9645,-5.3103 l -0.22803,-1.4259 -17.82161,-0.1004 -17.82161,-0.1003 -1.71366,-1.0599 c -1.25484,-0.7759 -1.98552,-1.576 -2.72859,-2.9873 l -1.01482,-1.9277 0.16199,-8.2593 c 0.17806,-9.0768 0.49333,-10.9514 2.75561,-16.3855 3.39661,-8.1591 11.05135,-15.621 19.39991,-18.9112 4.8683,-1.9185 7.42057,-2.4012 12.89392,-2.4381 6.84849,-0.046 11.68045,1.066 17.07792,3.931 l 2.49236,1.3229 2.39704,-2.2267 c 6.17311,-5.7346 14.26927,-9.7866 23.42715,-11.7251 5.18163,-1.0969 13.69996,-1.0926 18.92254,0.01 8.60926,1.8167 15.89825,5.3174 22.1971,10.6609 l 2.27744,1.9321 2.08473,-1.2384 c 7.11738,-4.2283 16.30547,-5.9032 24.52215,-4.4703 15.02391,2.6199 26.94191,14.868 29.02245,29.826 0.48585,3.4932 0.49118,14.7475 0.0102,16.4882 -0.43067,1.5509 -2.08279,3.5522 -3.63354,4.4016 -0.97264,0.5328 -3.02144,0.6161 -19.0145,0.7729 l -17.92441,0.1757 -0.22169,2.48 c -0.26612,2.9757 -1.14312,4.8326 -3.13058,6.6282 -2.97914,2.6915 0.67928,2.4838 -44.79762,2.5436 -22.42307,0.03 -41.43409,-0.08 -42.24668,-0.2425 z m 82.94303,-6.3186 c 1.54072,-1.212 1.68878,-2.3682 1.53447,-11.9847 -0.16311,-10.1649 -0.72515,-13.8941 -2.93368,-19.4654 -8.40078,-21.1925 -31.583,-32.1385 -53.47128,-25.2477 -11.97032,3.7685 -22.03173,13.1483 -26.7447,24.9327 -2.37461,5.9376 -2.92436,9.4795 -3.07283,19.7973 -0.13844,9.6161 0.0102,10.7654 1.53785,11.9678 0.89113,0.701 1.32753,0.7084 41.57509,0.7084 40.24745,0 40.68385,-0.01 41.57508,-0.7084 z m -90.32684,-15.898 c 0.16199,-5.8742 0.34845,-7.7617 1.06766,-10.8075 1.38416,-5.8623 3.49623,-10.8172 6.78358,-15.9144 0.84536,-1.3109 1.53703,-2.4652 1.53703,-2.5655 0,-0.3441 -5.09787,-2.5858 -7.20493,-3.1682 -1.25494,-0.347 -4.0296,-0.6505 -6.85341,-0.7499 -4.00943,-0.1411 -5.23487,-0.051 -7.90786,0.5801 -10.59456,2.5023 -19.29536,11.0672 -21.98545,21.6422 -1.03663,4.0751 -1.41692,15.8836 -0.55395,17.2006 l 0.58938,0.8995 h 17.16588 17.16589 z m 132.4439,4.4226 c 0.37793,-0.4589 0.46958,-2.1123 0.4235,-7.6442 -0.0491,-5.9119 -0.17868,-7.5154 -0.79642,-9.8703 -2.81081,-10.7154 -10.85546,-18.7658 -21.63813,-21.6538 -4.00942,-1.0738 -10.48592,-1.0847 -14.48665,-0.025 -3.02399,0.8015 -6.08033,2.036 -8.04271,3.2489 l -1.16001,0.7168 1.94885,2.7058 c 2.5279,3.5095 5.83142,10.2978 6.96103,14.3039 1.27224,4.5116 1.94671,9.5288 1.94916,14.4976 v 4.3054 h 17.17848 c 15.60356,0 17.22271,-0.053 17.66085,-0.5856 z m -142.36052,-49.1409 c -3.03781,-0.6905 -6.79822,-2.5323 -9.22361,-4.5176 -2.55421,-2.0907 -5.33041,-6.2361 -6.35168,-9.4841 -1.10616,-3.518 -1.11231,-8.8873 -0.0143,-12.3773 2.78756,-8.8601 12.06821,-15.1545 21.26296,-14.4213 5.47038,0.4362 10.16451,2.6967 13.86235,6.6753 7.40818,7.9709 7.41054,19.8348 0.0102,27.8223 -2.54479,2.745 -5.6681,4.7539 -8.99927,5.7883 -3.03659,0.9428 -7.66365,1.1686 -10.54214,0.5144 z m 10.61464,-6.767 c 3.12505,-1.4659 5.89971,-4.2363 7.38688,-7.3758 1.04646,-2.2094 1.12766,-2.6464 1.12766,-6.071 0,-3.4248 -0.0809,-3.8617 -1.12766,-6.0711 -1.48809,-3.1416 -4.26224,-5.9108 -7.38688,-7.3738 -4.5302,-2.1213 -10.61771,-1.6524 -14.66062,1.1293 -7.67348,5.2794 -8.95637,15.5598 -2.76954,22.1929 3.40541,3.651 6.55749,4.9392 11.71066,4.7856 2.89774,-0.086 3.6533,-0.2469 5.7195,-1.2161 z m 99.14283,5.5211 c -8.36433,-1.4982 -15.11627,-7.7646 -17.02929,-15.8048 -2.61769,-11.0025 4.83267,-22.4168 16.19888,-24.8171 5.23682,-1.106 11.35268,0.1677 15.99746,3.3314 7.43081,5.0616 10.67761,14.5794 7.93756,23.2683 -1.94712,6.1747 -7.56925,11.5614 -14.0565,13.4679 -2.41004,0.7083 -6.71548,0.972 -9.04811,0.5543 z m 8.02582,-6.3389 c 6.92037,-2.3313 11.25602,-9.2741 10.13574,-16.2303 -0.76314,-4.7387 -4.03462,-9.1123 -8.42208,-11.2594 -2.1944,-1.0738 -2.51397,-1.1308 -6.3524,-1.1308 -3.79307,0 -4.18237,0.067 -6.32629,1.0887 -3.35011,1.5964 -5.70312,3.8867 -7.28715,7.0933 -1.27849,2.588 -1.32354,2.8056 -1.32047,6.3866 0,3.3104 0.10721,3.9305 0.97602,5.7915 3.36301,7.2042 11.28562,10.7233 18.59663,8.2604 z m -66.84707,-0.6976 c -8.88541,-2.3004 -15.7425,-8.7486 -18.85466,-17.7305 -0.88017,-2.5403 -0.9756,-3.2866 -0.9885,-7.7322 -0.0123,-4.2012 0.10608,-5.3057 0.8088,-7.5563 2.35977,-7.5574 7.26637,-13.2304 14.32753,-16.5654 3.96346,-1.8721 6.92191,-2.512 11.56035,-2.5005 8.22302,0.021 15.46194,3.4359 20.67409,9.7548 6.41803,7.7809 7.76174,19.2899 3.28796,28.1619 -3.66897,7.2759 -10.44948,12.6579 -18.05671,14.3324 -3.53596,0.7784 -9.40977,0.7027 -12.75886,-0.1642 z m 13.10076,-5.9132 c 7.99366,-2.8146 13.24205,-8.9838 14.39961,-16.9256 1.27347,-8.7374 -3.465,-17.5373 -11.53997,-21.4311 -7.89188,-3.8056 -17.2011,-2.3809 -23.54346,3.6031 -4.47194,4.2193 -6.62129,9.0975 -6.62129,15.0284 0,9.4333 6.31667,17.5093 15.68107,20.0491 3.29554,0.8937 8.58458,0.7464 11.62404,-0.3239 z"
       id="path406" /></g></svg>
