<?xml version="1.0" encoding="UTF-8" standalone="no"?>
<!-- Created with Inkscape (http://www.inkscape.org/) -->

<svg
   width="179.96759mm"
   height="180.00006mm"
   viewBox="0 0 179.96759 180.00006"
   version="1.1"
   id="svg5"
   xml:space="preserve"
   xmlns:inkscape="http://www.inkscape.org/namespaces/inkscape"
   xmlns:sodipodi="http://sodipodi.sourceforge.net/DTD/sodipodi-0.dtd"
   xmlns="http://www.w3.org/2000/svg"
   xmlns:svg="http://www.w3.org/2000/svg"><sodipodi:namedview
     id="namedview7"
     pagecolor="#ffffff"
     bordercolor="#000000"
     borderopacity="0.25"
     inkscape:showpageshadow="2"
     inkscape:pageopacity="0.0"
     inkscape:pagecheckerboard="0"
     inkscape:deskcolor="#d1d1d1"
     inkscape:document-units="mm"
     showgrid="false" /><defs
     id="defs2" /><g
     inkscape:label="Capa 1"
     inkscape:groupmode="layer"
     id="layer1"
     transform="translate(912.2264,1142.3235)"><path
       style="fill:#000000;stroke-width:0.352497"
       d="m -878.39518,-962.98884 c -3.61136,-0.95323 -5.83558,-2.25323 -8.73855,-5.1075 -2.74241,-2.69638 -4.67365,-6.14152 -5.39432,-9.62288 -0.26177,-1.26458 -0.38668,-10.97139 -0.38668,-30.05038 0,-28.1824 0,-28.1824 -2.39341,-28.1824 -8.44168,0 -15.3223,-5.7703 -16.70779,-14.0117 -0.54873,-3.2641 -0.019,-6.7272 1.52343,-9.9581 1.01036,-2.1164 4.05503,-5.2524 39.91487,-41.1123 45.24778,-45.2477 40.47603,-41.1957 48.51234,-41.1957 8.04197,0 3.26766,-4.0538 48.5172,41.1957 45.24869,45.2487 41.19568,40.4756 41.19568,48.5148 0,4.7236 -0.0126,4.7992 -1.20896,7.2336 -2.82953,5.7577 -8.67021,9.3337 -15.24457,9.3337 -2.38179,0 -2.38179,0 -2.48154,29.1691 -0.0997,29.16915 -0.0997,29.16915 -1.04191,31.59407 -2.49863,6.43096 -7.64557,10.93387 -14.14185,12.37228 -2.16333,0.47899 -4.93309,0.54755 -18.6421,0.46137 -15.6306,-0.0982 -16.12968,-0.12245 -17.07431,-0.82798 -0.53518,-0.39972 -1.30012,-1.16465 -1.69983,-1.69984 -0.71274,-0.95426 -0.73019,-1.42784 -0.90303,-24.50489 -0.17625,-23.53181 -0.17625,-23.53181 -1.2464,-25.26621 -1.2031,-1.9498 -3.89414,-3.7925 -6.06151,-4.1507 -1.72789,-0.2856 -18.20098,-0.2856 -19.92885,0 -2.1674,0.3582 -4.85844,2.2009 -6.06154,4.1507 -1.07015,1.7344 -1.07015,1.7344 -1.2464,25.26621 -0.17284,23.07705 -0.19029,23.55063 -0.90301,24.50489 -0.39972,0.53519 -1.16466,1.30012 -1.69987,1.69984 -0.94678,0.70713 -1.41784,0.72876 -17.42681,0.80059 -15.26641,0.0685 -16.63966,0.0248 -19.03028,-0.60627 z m 28.48508,-29.58868 c 0,-12.94038 0.13296,-20.36478 0.38667,-21.59038 1.36898,-6.6133 6.71385,-12.3323 13.53695,-14.4846 2.33391,-0.7361 3.08762,-0.7783 13.92362,-0.7783 10.11933,0 11.70294,0.076 13.57114,0.6482 6.90151,2.1149 12.01936,7.3824 13.74106,14.1426 0.44719,1.7559 0.53506,5.3593 0.53506,21.94294 0,19.84202 0,19.84202 12.60175,19.82655 13.55276,-0.0167 14.09217,-0.0787 16.47209,-1.89392 0.67385,-0.51396 1.66492,-1.68256 2.2024,-2.59689 0.97722,-1.66242 0.97722,-1.66242 1.15347,-33.62588 0.17422,-31.5947 0.18463,-31.9747 0.90303,-32.9367 1.69752,-2.2731 2.151,-2.4111 8.55077,-2.603 6.80902,-0.2041 7.89448,-0.5929 9.20353,-3.297 0.91586,-1.892 0.92567,-3.4806 0.0328,-5.316 -0.99874,-2.053 -74.77384,-75.7561 -76.57642,-76.5017 -1.76373,-0.7295 -3.28989,-0.6822 -5.01124,0.1552 -2.05302,0.9987 -75.75609,74.7738 -76.50167,76.5764 -0.73677,1.7813 -0.68097,3.2911 0.18794,5.0861 1.30904,2.7041 2.3945,3.0929 9.20352,3.297 6.39978,0.1919 6.85328,0.3299 8.55078,2.6031 0.71839,0.9619 0.72881,1.3419 0.90303,32.9366 0.17624,31.96346 0.17624,31.96346 1.15348,33.62588 0.53746,0.91433 1.52854,2.08293 2.20238,2.59689 2.37992,1.81526 2.91933,1.87727 16.47208,1.89392 12.60177,0.0155 12.60177,0.0155 12.60177,-19.70701 z"
       id="path490"
       inkscape:export-filename="home-light.svg"
       inkscape:export-xdpi="96"
       inkscape:export-ydpi="96" /></g></svg>
