<?xml version="1.0" encoding="UTF-8" standalone="no"?>
<!-- Created with Inkscape (http://www.inkscape.org/) -->

<svg
   width="179.9823mm"
   height="180mm"
   viewBox="0 0 179.9823 180"
   version="1.1"
   id="svg5"
   xml:space="preserve"
   xmlns:inkscape="http://www.inkscape.org/namespaces/inkscape"
   xmlns:sodipodi="http://sodipodi.sourceforge.net/DTD/sodipodi-0.dtd"
   xmlns="http://www.w3.org/2000/svg"
   xmlns:svg="http://www.w3.org/2000/svg"><sodipodi:namedview
     id="namedview7"
     pagecolor="#ffffff"
     bordercolor="#000000"
     borderopacity="0.25"
     inkscape:showpageshadow="2"
     inkscape:pageopacity="0.0"
     inkscape:pagecheckerboard="0"
     inkscape:deskcolor="#d1d1d1"
     inkscape:document-units="mm"
     showgrid="false" /><defs
     id="defs2" /><g
     inkscape:label="Capa 1"
     inkscape:groupmode="layer"
     id="layer1"
     transform="translate(746.39229,910.38083)"><path
       style="fill:#ffffff;stroke-width:0.351823"
       d="m -708.73661,-552.14698 c -3.60447,-0.9514 -5.82444,-2.24893 -8.72186,-5.09772 -2.73716,-2.69124 -4.6647,-6.12979 -5.38399,-9.6045 -0.26128,-1.26215 -0.38594,-10.9504 -0.38594,-29.99289 0,-28.12848 0,-28.12848 -2.38885,-28.12848 -8.42552,0 -15.29299,-5.75931 -16.67582,-13.98496 -0.5477,-3.25787 -0.019,-6.71428 1.5205,-9.93899 1.00842,-2.1124 4.04729,-5.24243 39.83855,-41.03371 35.79128,-35.79126 38.9213,-38.83012 41.0337,-39.83854 4.76989,-2.27705 10.05239,-2.28835 14.73359,-0.0315 2.16027,1.04148 5.14939,3.94279 41.07666,39.87006 35.79127,35.79128 38.83012,38.92131 39.83856,41.03371 1.53941,3.22471 2.06819,6.68112 1.5205,9.93899 -1.38198,8.22054 -8.25075,13.98496 -16.66423,13.98496 -2.37723,0 -2.37723,0 -2.47679,29.11333 -0.0995,29.11332 -0.0995,29.11332 -1.03992,31.53358 -2.49384,6.41868 -7.63096,10.91298 -14.11479,12.34863 -2.15921,0.47809 -4.92366,0.5465 -18.60645,0.4605 -15.60071,-0.0981 -16.09885,-0.12223 -17.04166,-0.8264 -0.53417,-0.39897 -1.29762,-1.16242 -1.69659,-1.69659 -0.71136,-0.95243 -0.72878,-1.42511 -0.90129,-24.45803 -0.17591,-23.48682 -0.17591,-23.48682 -1.24402,-25.21785 -1.2008,-1.94608 -3.88669,-3.78531 -6.04993,-4.14284 -1.72457,-0.28503 -18.16616,-0.28503 -19.89073,0 -2.16325,0.35753 -4.84913,2.19676 -6.04993,4.14284 -1.06811,1.73103 -1.06811,1.73103 -1.24402,25.21785 -0.17251,23.03292 -0.18993,23.5056 -0.90129,24.45803 -0.39897,0.53417 -1.16244,1.29762 -1.69661,1.69659 -0.94497,0.70577 -1.41513,0.72737 -17.39349,0.79905 -15.23719,0.0684 -16.60783,0.0247 -18.99386,-0.6051 z"
       id="path374" /><path
       style="fill:#000000;stroke-width:0.351823"
       d="m -712.6257,-731.045 c -3.60447,-0.9514 -5.82444,-2.24893 -8.72186,-5.09772 -2.73716,-2.69124 -4.6647,-6.12979 -5.38399,-9.6045 -0.26128,-1.26215 -0.38594,-10.9504 -0.38594,-29.99289 0,-28.12848 0,-28.12848 -2.38885,-28.12848 -8.42552,0 -15.29299,-5.75931 -16.67582,-13.98496 -0.5477,-3.25787 -0.019,-6.71428 1.5205,-9.93899 1.00842,-2.1124 4.04729,-5.24243 39.83855,-41.03371 35.79128,-35.79126 38.9213,-38.83012 41.0337,-39.83854 4.76989,-2.27705 10.05239,-2.28835 14.73359,-0.0315 2.16027,1.04148 5.14939,3.94279 41.07666,39.87006 35.79127,35.79128 38.83012,38.92131 39.83856,41.03371 1.53941,3.22471 2.06819,6.68112 1.5205,9.93899 -1.38198,8.22054 -8.25075,13.98496 -16.66423,13.98496 -2.37723,0 -2.37723,0 -2.47679,29.11333 -0.0995,29.11332 -0.0995,29.11332 -1.03992,31.53358 -2.49384,6.41868 -7.63096,10.91298 -14.11479,12.34863 -2.15921,0.47809 -4.92366,0.5465 -18.60645,0.4605 -15.60071,-0.0981 -16.09885,-0.12223 -17.04166,-0.8264 -0.53417,-0.39897 -1.29762,-1.16242 -1.69659,-1.69659 -0.71136,-0.95243 -0.72878,-1.42511 -0.90129,-24.45803 -0.17591,-23.48682 -0.17591,-23.48682 -1.24402,-25.21785 -1.2008,-1.94608 -3.88669,-3.78531 -6.04993,-4.14284 -1.72457,-0.28503 -18.16616,-0.28503 -19.89073,0 -2.16325,0.35753 -4.84913,2.19676 -6.04993,4.14284 -1.06811,1.73103 -1.06811,1.73103 -1.24402,25.21785 -0.17251,23.03292 -0.18993,23.5056 -0.90129,24.45803 -0.39897,0.53417 -1.16244,1.29762 -1.69661,1.69659 -0.94497,0.70577 -1.41513,0.72737 -17.39349,0.79905 -15.23719,0.0684 -16.60783,0.0247 -18.99386,-0.6051 z"
       id="path492" /></g></svg>
