<?xml version="1.0" encoding="UTF-8" standalone="no"?>
<!-- Created with Inkscape (http://www.inkscape.org/) -->

<svg
   width="179.99109mm"
   height="180.00549mm"
   viewBox="0 0 179.99109 180.00549"
   version="1.1"
   id="svg5"
   xml:space="preserve"
   inkscape:version="1.2.2 (732a01da63, 2022-12-09)"
   sodipodi:docname="iconos.svg"
   xmlns:inkscape="http://www.inkscape.org/namespaces/inkscape"
   xmlns:sodipodi="http://sodipodi.sourceforge.net/DTD/sodipodi-0.dtd"
   xmlns="http://www.w3.org/2000/svg"
   xmlns:svg="http://www.w3.org/2000/svg"><sodipodi:namedview
     id="namedview7"
     pagecolor="#ffffff"
     bordercolor="#000000"
     borderopacity="0.25"
     inkscape:showpageshadow="2"
     inkscape:pageopacity="0.0"
     inkscape:pagecheckerboard="0"
     inkscape:deskcolor="#d1d1d1"
     inkscape:document-units="mm"
     showgrid="false"
     inkscape:zoom="0.19242424"
     inkscape:cx="-3131.1024"
     inkscape:cy="7111.8899"
     inkscape:window-width="1920"
     inkscape:window-height="1051"
     inkscape:window-x="-9"
     inkscape:window-y="-9"
     inkscape:window-maximized="1"
     inkscape:current-layer="layer1" /><defs
     id="defs2" /><g
     inkscape:label="Capa 1"
     inkscape:groupmode="layer"
     id="layer1"
     transform="translate(639.6252,-1926.056)"><path
       id="path958"
       style="fill:#000000;stroke-width:0.351894"
       d="m -618.3457,1926.0586 c -3.62093,0.082 -6.22978,4.6379 -4.36416,7.7698 1.19942,1.874 3.42935,2.608 5.16759,3.858 4.21248,2.591 8.40057,5.192 12.8118,7.4171 2.76824,0.9776 6.25687,-0.8124 6.75899,-3.7795 0.50309,-2.3613 -0.78206,-4.9568 -2.98504,-5.9615 -5.06429,-3.1898 -10.27773,-6.1464 -15.59729,-8.8863 -0.56205,-0.2533 -1.1686,-0.4454 -1.79189,-0.4176 z m 137.06836,0.01 c -1.96193,0.2676 -3.53355,1.6027 -5.28157,2.4227 -4.56477,2.5865 -9.2044,5.0959 -13.43132,8.2179 -0.98591,0.833 -1.59322,2.1171 -1.40057,3.4172 -0.0488,1.6385 0.62802,3.3256 1.99866,4.2816 1.4386,1.2764 3.58605,0.9948 5.25338,0.3782 2.10382,-0.8812 4.01157,-2.1595 6.01041,-3.2478 3.59095,-2.1003 7.18994,-4.2092 10.61882,-6.564 1.83982,-1.5809 1.98942,-4.5096 0.64309,-6.452 -0.93634,-1.4797 -2.61876,-2.5625 -4.4109,-2.4538 z m -69.39454,5.6816 c -11.41293,0.2514 -22.44622,5.7454 -29.70507,14.5078 -5.46754,6.4789 -8.8945,14.798 -9.30664,23.2383 -0.41337,7.5842 1.34005,15.2248 5.09961,21.8555 3.25761,5.4892 7.28099,10.5449 9.87109,16.416 2.16978,4.9731 3.92924,10.2425 4.10524,15.7115 0.20123,4.2021 0.19454,8.4127 0.37718,12.6146 0.0899,1.3363 0.90938,2.3857 1.47124,3.5557 1.23659,2.3756 3.13714,4.5564 5.49059,5.9695 2.75356,1.7189 6.05324,2.4692 9.22556,2.3685 4.74158,0.028 9.45923,0.075 14.14032,-0.6534 3.84369,-1.0325 7.02489,-3.8555 9.10244,-7.181 1.18445,-1.9811 1.69815,-4.2205 1.71458,-6.5387 0.42895,-5.6268 -0.0913,-11.4738 1.42607,-17.0103 1.65779,-6.5382 4.68127,-12.6635 8.47307,-18.2197 3.14427,-4.822 6.51331,-9.6978 8.0387,-15.3047 1.36094,-4.6093 1.8252,-9.6363 1.45063,-14.4019 -0.52399,-6.6243 -2.72567,-13.2561 -6.43248,-18.8512 -3.07378,-4.7211 -7.30375,-8.8802 -12.14519,-11.8913 -6.6515,-4.1785 -14.53459,-6.4104 -22.39694,-6.1852 z m 1.66016,10.5117 c 7.13731,0.033 14.13733,3.012 19.29943,7.9084 5.40555,4.9492 9.14538,11.9134 9.48975,19.3054 0.33118,5.2226 -0.44234,10.6272 -2.95487,15.273 -2.75965,5.3269 -6.66661,9.9755 -9.29412,15.3756 -2.43517,4.6932 -4.28726,9.5769 -5.59097,14.6884 0.0587,1.1962 -1.28984,1.8931 -2.34647,1.6504 -1.31869,-0.02 -2.63749,-0.015 -3.95626,-0.01 -0.0494,-10.4353 0.13009,-20.8743 -0.17383,-31.3066 -0.16912,-2.0222 -1.63159,-3.9211 -3.6712,-4.3154 -1.50596,-0.4403 -3.48294,-0.3041 -4.75702,0.8511 -1.29834,0.9042 -1.68663,2.5383 -1.72513,4.0328 -0.2777,4.2458 -0.18537,8.5056 -0.23036,12.758 -0.005,5.7069 0.002,11.4138 8.9e-4,17.1207 -0.53184,1.0056 -1.76825,0.9284 -2.73046,0.834 -1.049,0.055 -2.10184,0.01 -3.15235,0.024 -1.89151,-8.4135 -5.50053,-16.4017 -10.24904,-23.5477 -2.67716,-4.0964 -5.67282,-8.1387 -6.97513,-12.9316 -2.71868,-9.2805 -0.47827,-19.8541 5.8608,-27.1748 4.91446,-5.8024 12.10128,-9.6298 19.68106,-10.3511 1.15353,-0.1265 2.31462,-0.1863 3.47528,-0.1843 z m -67.30664,19.1328 c -2.80235,0.092 -5.65185,-0.2009 -8.41636,0.3382 -2.7734,1.104 -4.28803,4.8621 -2.6422,7.4694 0.89298,1.6204 2.73954,2.6298 4.58912,2.4678 5.78746,0.138 11.58199,0.1462 17.36741,-0.039 1.58395,-0.056 3.40632,-0.3583 4.30534,-1.8314 1.62761,-2.2768 1.24611,-5.9737 -1.2727,-7.4567 -1.76656,-1.1892 -3.97574,-0.8032 -5.97787,-0.9274 -2.65078,-0.038 -5.30179,-0.04 -7.95274,-0.02 z m 127.13281,0.016 c -2.33915,0.037 -4.79127,-0.1948 -6.98828,0.5235 -2.64817,1.1781 -4.00557,4.8357 -2.33594,7.3223 0.91277,1.5806 2.73242,2.568 4.55955,2.402 4.89511,0.1795 9.79518,0.069 14.69236,0.085 1.6423,-0.046 3.26514,0.01 4.87481,-0.3802 2.71619,-1.0088 4.04336,-4.6495 2.47749,-7.1299 -0.78436,-1.5664 -2.3729,-2.8312 -4.19468,-2.7349 -3.7127,-0.187 -7.43386,-0.073 -11.15015,-0.1115 -0.64527,0 -1.29021,0 -1.93516,0.023 z m -113.96484,26.4083 c -2.09448,0.2765 -3.76798,1.7033 -5.62885,2.5815 -4.40415,2.4993 -8.89843,4.9478 -12.93737,7.9529 -1.20891,0.9764 -1.86047,2.5729 -1.57401,4.1154 0.24206,2.0879 1.8525,3.8072 3.80101,4.4788 1.19788,0.5317 2.59348,0.2907 3.65511,-0.4343 4.16864,-2.1197 8.1039,-4.6558 12.11374,-7.0539 1.66271,-1.0569 3.39844,-2.0547 4.83795,-3.3416 1.97159,-2.4689 1.02881,-6.7344 -1.98854,-7.8985 -0.70956,-0.3229 -1.50256,-0.4548 -2.27904,-0.4003 z m 106.27148,0.01 c -2.95968,0.1593 -5.16715,3.3822 -4.46148,6.2173 0.2494,1.571 1.40296,2.8498 2.81457,3.5076 5.21239,3.313 10.45918,6.5953 15.94574,9.4372 1.91088,0.7144 4.00197,-0.3359 5.31055,-1.7265 1.76872,-1.8623 1.84846,-5.2993 -0.30469,-6.9043 -3.53206,-2.7487 -7.56387,-4.8187 -11.36345,-7.0917 -2.17899,-1.212 -4.32694,-2.5521 -6.68646,-3.3778 -0.41279,-0.073 -0.83669,-0.083 -1.25478,-0.062 z m -62.33984,38.9805 c 1.19257,0.3632 2.47518,0.1011 3.70739,0.1889 5.36053,0.019 10.72112,0.01 16.08167,0.01 -0.16927,2.7571 0.43054,5.689 -0.78711,8.2812 -1.21739,1.8986 -3.67591,2.2808 -5.75781,2.2188 -3.67165,0.036 -7.39737,0.2417 -11.01759,-0.484 -1.44135,-0.3822 -2.58537,-1.6913 -2.64884,-3.2015 -0.40343,-2.3869 -0.0633,-4.8173 -0.29451,-7.2188 0.23894,0.07 0.47787,0.1393 0.7168,0.209 z m -11.30273,31.6133 c -8.3316,0.3552 -16.58798,2.1482 -24.89331,3.1231 -4.25386,0.4988 -8.54636,0.4651 -12.8218,0.3884 -3.80807,-0.082 -7.59115,-0.6176 -11.29668,-1.486 -2.45204,-0.4979 -4.89933,-1.2141 -7.41009,-1.2755 -2.01675,0.2659 -4.13435,1.6973 -4.36914,3.8535 -0.23227,1.9111 -0.10572,3.8462 -0.20143,5.767 -0.0743,4.5728 -0.10706,9.1462 -0.1599,13.7193 -2.3484,0.2033 -5.05508,0.3319 -6.75584,2.1995 -2.06107,2.2729 -1.35981,6.3589 1.3552,7.8047 0.55728,0.4758 1.26389,0.8002 2.00299,0.6403 18.86171,0 37.72343,0 56.58515,0 1.64432,5.15 5.57611,9.5687 10.63724,11.5474 1.76073,0.8512 3.70905,1.34 5.67084,1.2205 8.26706,0.2218 16.53941,0.1344 24.80716,0.011 1.94397,-0.031 3.87326,-0.1657 5.61934,-0.9893 4.68568,-1.8966 8.58064,-5.7001 10.4305,-10.423 0.23462,-0.4248 0.28941,-1.0946 0.62437,-1.367 19.17761,0 38.35521,0 57.53282,0 1.7547,-0.9891 3.47901,-2.6002 3.51527,-4.7571 0.19245,-2.4047 -1.52003,-4.8248 -3.91869,-5.2931 -1.44069,-0.4011 -2.94531,-0.4518 -4.42471,-0.6099 -0.10428,-6.3616 0.21934,-12.7675 -0.29911,-19.0956 -0.30375,-2.5393 -2.82703,-4.4585 -5.34604,-4.2069 -3.41272,0.4809 -6.76027,1.3679 -10.16006,1.9413 -7.03605,1.2503 -14.25446,1.2233 -21.32584,0.2789 -8.5288,-1.0129 -16.99146,-2.9511 -25.55983,-3.0031 -5.76776,0.1016 -11.53785,2.3351 -15.81046,6.312 -1.1952,1.0402 -2.28218,2.1957 -3.3678,3.3476 -3.34424,-3.7992 -7.47239,-7.0937 -12.37634,-8.5821 -2.59493,-0.8675 -5.4805,-1.2636 -8.28381,-1.0663 z m 0.78515,10.5371 c 5.88398,0 11.4236,3.8867 13.75391,9.2344 0.92226,2.0062 1.27318,4.4494 3.16971,5.8406 2.09677,1.6106 5.38523,1.1173 6.95632,-0.9978 1.3999,-1.8764 1.59488,-4.2887 2.8897,-6.2563 1.37194,-2.4558 3.36355,-4.6233 5.92487,-5.8536 1.93342,-1.1742 4.15773,-2.0276 6.45548,-1.8318 10.88903,-0.098 21.49045,3.2415 32.33358,3.4515 6.61691,0.2517 13.22371,-0.2881 19.69612,-1.6359 0,3.8887 0,7.7774 0,11.6661 -15.59295,0.1067 -31.18912,0.021 -46.77926,0.351 -1.58907,0.064 -3.24839,0.6534 -4.15982,2.0296 -1.3585,1.8138 -0.94662,4.245 -1.92616,6.2209 -0.91116,2.2968 -3.12222,4.0398 -5.61628,4.1895 -3.97389,0.1734 -7.95707,0.2177 -11.93645,0.2363 -4.62987,-0.015 -9.2678,-0.046 -13.88877,-0.3058 -3.04589,-0.4613 -5.2374,-3.3198 -5.63324,-6.2634 -0.31266,-1.8319 -0.62996,-3.9177 -2.25143,-5.089 -1.73824,-1.336 -4.04187,-0.9506 -6.08109,-1.0861 -10.18288,-0.2276 -20.36948,-0.1374 -30.55402,-0.2248 -4.56629,-0.019 -9.13258,-0.039 -13.69887,-0.058 0,-3.8894 0,-7.7787 0,-11.668 8.06825,1.7731 16.35055,1.8742 24.56669,1.3105 8.96413,-0.776 17.75918,-3.0565 26.77901,-3.2597 z" /></g></svg>
