<?xml version="1.0" encoding="UTF-8" standalone="no"?>
<!-- Created with Inkscape (http://www.inkscape.org/) -->

<svg
   width="196.92242mm"
   height="180mm"
   viewBox="0 0 196.92242 180"
   version="1.1"
   id="svg5"
   xml:space="preserve"
   inkscape:version="1.2.2 (732a01da63, 2022-12-09)"
   sodipodi:docname="iconos.svg"
   xmlns:inkscape="http://www.inkscape.org/namespaces/inkscape"
   xmlns:sodipodi="http://sodipodi.sourceforge.net/DTD/sodipodi-0.dtd"
   xmlns="http://www.w3.org/2000/svg"
   xmlns:svg="http://www.w3.org/2000/svg"><sodipodi:namedview
     id="namedview7"
     pagecolor="#ffffff"
     bordercolor="#000000"
     borderopacity="0.25"
     inkscape:showpageshadow="2"
     inkscape:pageopacity="0.0"
     inkscape:pagecheckerboard="0"
     inkscape:deskcolor="#d1d1d1"
     inkscape:document-units="mm"
     showgrid="false"
     inkscape:zoom="0.096212121"
     inkscape:cx="-4360.1575"
     inkscape:cy="265.03937"
     inkscape:window-width="1920"
     inkscape:window-height="1051"
     inkscape:window-x="-9"
     inkscape:window-y="-9"
     inkscape:window-maximized="1"
     inkscape:current-layer="layer1" /><defs
     id="defs2" /><g
     inkscape:label="Capa 1"
     inkscape:groupmode="layer"
     id="layer1"
     transform="translate(636.53627,-657.31254)"><g
       id="g1162"><path
         style="fill:#000000;stroke-width:0.384738"
         d="m -619.85926,836.63786 c -4.09467,-1.19106 -6.75679,-2.76251 -9.84956,-5.81426 -5.85478,-5.77742 -8.10139,-13.59407 -6.12649,-21.31601 1.11879,-4.3747 2.81388,-7.3017 6.14852,-10.61723 4.57567,-4.54937 9.38296,-6.54053 15.79094,-6.54053 6.34205,0 11.2835,2.04793 15.77809,6.53897 4.82993,4.82609 6.70997,9.37645 6.67708,16.16055 -0.0153,3.14618 -0.2102,4.59291 -0.8815,6.54055 -2.628,7.62486 -8.84628,13.44293 -16.22695,15.18272 -3.26641,0.76998 -8.41042,0.70868 -11.31013,-0.13478 z m 1.07458,-67.183 c -5.43346,-1.18079 -10.55315,-4.6859 -13.76861,-9.42628 -7.06812,-10.42031 -4.42727,-24.30187 5.96447,-31.35056 13.31547,-9.03206 31.50355,-1.59661 34.8157,14.233 1.06341,5.08226 0.42622,9.53393 -2.09729,14.6543 -4.43155,8.99157 -15.01315,14.0413 -24.91427,11.88954 z m -0.88227,-67.74114 c -5.55402,-1.46154 -11.55873,-6.20868 -14.16516,-11.19862 -4.7464,-9.08659 -3.13545,-19.50489 4.12329,-26.66769 4.48127,-4.42187 9.5774,-6.54633 15.6762,-6.53486 10.00454,0.0188 18.37839,6.10082 21.71044,15.76856 1.13408,3.2906 1.23475,9.46612 0.20989,12.88873 -2.28714,7.63849 -8.5992,13.77704 -16.20277,15.75754 -2.83622,0.73874 -8.51859,0.73188 -11.35189,-0.0138 z"
         id="path906"
         sodipodi:nodetypes="ssssssssssssssssssssssssss" /><path
         id="path1038"
         style="fill:#000000;stroke-width:0.37008"
         d="m -494.13636,803.61328 c -22.14379,0.0387 -44.29083,-0.13303 -66.43151,0.32821 -2.41843,0.0792 -4.8131,1.16449 -6.43221,3.13532 -2.98002,3.39436 -3.73241,8.92745 -1.49923,12.99475 1.65443,3.28056 5.05609,5.55432 8.55469,5.27808 16.58412,0.39452 33.17337,0.24873 49.76009,0.32037 19.73697,0.006 39.47537,0.0936 59.2111,-0.17228 2.6384,-0.0555 5.50464,-0.39498 7.56178,-2.37273 3.31294,-2.88581 4.83065,-8.20476 3.03356,-12.48054 -1.3718,-3.71271 -4.75153,-6.59928 -8.51296,-6.69654 -3.43509,-0.25854 -6.8842,-0.17454 -10.32577,-0.24335 -11.63951,-0.11619 -23.27967,-0.0977 -34.91954,-0.0913 z" /><path
         id="path1038-6"
         style="fill:#000000;stroke-width:0.37011"
         d="m -494.70823,668.9375 c -21.81366,0.0407 -43.63036,-0.12233 -65.44114,0.3147 -2.16896,0.0565 -4.41042,0.68181 -6.03406,2.31689 -3.5547,3.20512 -4.7138,9.17364 -2.44392,13.5807 1.68321,3.55855 5.39396,5.94994 9.11136,5.56383 23.30919,0.37855 46.62177,0.25682 69.93273,0.30202 13.31131,-0.0178 26.62511,0.0504 39.93399,-0.24873 2.43916,-0.10409 4.99043,-0.83326 6.73798,-2.78287 3.02407,-3.01386 4.2782,-8.17809 2.43798,-12.2631 -1.46778,-3.73322 -5.00349,-6.54437 -8.81773,-6.46998 -5.65754,-0.29821 -11.32498,-0.2063 -16.9873,-0.27541 -9.47655,-0.0551 -18.95325,-0.0366 -28.42989,-0.038 z" /><path
         id="path1038-9"
         style="fill:#000000;stroke-width:0.370099"
         d="m -507.43106,737.11012 c -17.74798,0.0335 -35.49924,-0.0791 -53.24389,0.34074 -2.16812,0.10744 -4.33727,0.95681 -5.88201,2.64403 -3.26178,3.27774 -4.26037,8.9795 -2.06593,13.2245 1.6758,3.55791 5.38699,5.94842 9.0998,5.5658 22.88016,0.37486 45.76368,0.25536 68.64562,0.29931 13.66125,-0.0215 27.32528,0.0471 40.98406,-0.23617 2.42723,-0.0862 4.98997,-0.70686 6.7818,-2.59804 3.13696,-2.96735 4.50227,-8.19084 2.67918,-12.35298 -1.46416,-3.85363 -5.13347,-6.72518 -9.04306,-6.59218 -7.6575,-0.31816 -15.32304,-0.22466 -22.98455,-0.28243 -11.65696,-0.0321 -23.31403,-0.0118 -34.97102,-0.0126 z" /></g></g></svg>
