<?xml version="1.0" encoding="UTF-8" standalone="no"?>
<!-- Created with Inkscape (http://www.inkscape.org/) -->

<svg
   width="179.07031mm"
   height="180.00024mm"
   viewBox="0 0 179.07031 180.00024"
   version="1.1"
   id="svg5"
   xml:space="preserve"
   inkscape:version="1.2.2 (732a01da63, 2022-12-09)"
   sodipodi:docname="iconos.svg"
   xmlns:inkscape="http://www.inkscape.org/namespaces/inkscape"
   xmlns:sodipodi="http://sodipodi.sourceforge.net/DTD/sodipodi-0.dtd"
   xmlns="http://www.w3.org/2000/svg"
   xmlns:svg="http://www.w3.org/2000/svg"><sodipodi:namedview
     id="namedview7"
     pagecolor="#ffffff"
     bordercolor="#000000"
     borderopacity="0.25"
     inkscape:showpageshadow="2"
     inkscape:pageopacity="0.0"
     inkscape:pagecheckerboard="0"
     inkscape:deskcolor="#d1d1d1"
     inkscape:document-units="mm"
     showgrid="false"
     inkscape:zoom="0.27212897"
     inkscape:cx="-3206.2003"
     inkscape:cy="3004.0903"
     inkscape:window-width="1920"
     inkscape:window-height="1051"
     inkscape:window-x="-9"
     inkscape:window-y="-9"
     inkscape:window-maximized="1"
     inkscape:current-layer="layer1" /><defs
     id="defs2" /><g
     inkscape:label="Capa 1"
     inkscape:groupmode="layer"
     id="layer1"
     transform="translate(637.85622,-1505.9912)"><path
       style="fill:#000000;stroke-width:0.365826"
       d="m -563.91901,1685.4395 c -1.94816,-0.6075 -3.90371,-2.4225 -4.47488,-4.1533 -0.23236,-0.704 -0.77045,-3.8184 -1.19583,-6.921 l -0.77346,-5.6411 -2.92662,-1.1865 c -1.60966,-0.6526 -4.65896,-2.0069 -6.77632,-3.0096 l -3.84971,-1.823 -3.28395,2.5036 c -6.55031,4.9938 -7.31274,5.4154 -9.79493,5.4154 -1.46503,0 -2.72953,-0.2464 -3.71589,-0.7239 -2.10914,-1.021 -20.04469,-19.0992 -20.83033,-20.9961 -1.28854,-3.1107 -0.85296,-4.4305 3.71413,-11.2543 l 3.28134,-4.9027 -1.83651,-4.2 c -1.01008,-2.3101 -2.36793,-5.6817 -3.01756,-7.4926 l -1.18105,-3.2924 -5.07207,-0.6779 c -2.78958,-0.373 -5.73014,-0.843 -6.5346,-1.0446 -1.931,-0.484 -4.71401,-3.2493 -5.26188,-5.2282 -0.26097,-0.9429 -0.40582,-6.0909 -0.40707,-14.4752 0,-15.082 0.1179,-15.9093 2.62589,-18.0561 1.67023,-1.4296 1.86065,-1.4817 9.38713,-2.5647 l 5.2473,-0.755 1.60727,-4.8951 c 0.88397,-2.6923 2.23953,-6.0671 3.01236,-7.4995 l 1.40509,-2.6044 -3.21059,-4.2584 c -1.76575,-2.342 -3.54763,-4.8114 -3.9598,-5.4874 -1.00811,-1.6537 -1.02153,-5.014 -0.0281,-7.066 0.98605,-2.0371 19.12805,-20.0918 20.95645,-20.8558 3.19102,-1.3333 4.87603,-0.7319 11.21739,4.0043 l 4.98747,3.7251 2.97095,-1.7029 c 2.3414,-1.3422 8.24478,-3.627 10.93779,-4.2333 0.22456,-0.05 0.67242,-2.4352 1.03693,-5.5201 0.35297,-2.9873 0.80978,-6.0895 1.01519,-6.894 0.49344,-1.9325 3.26251,-4.7157 5.23502,-5.2618 2.06003,-0.5703 26.71676,-0.555 28.99218,0.018 1.15982,0.292 2.18271,0.9136 3.23494,1.9658 1.68063,1.6805 1.58937,1.3951 3.36886,10.5471 l 0.98667,5.0747 3.84118,1.3516 c 2.11268,0.7435 5.48528,2.0962 7.49463,3.006 l 3.65336,1.6541 3.11444,-2.1766 c 7.63615,-5.3368 7.96122,-5.5172 10.23363,-5.6817 3.84003,-0.2777 4.08301,-0.1077 14.19989,9.939 10.22052,10.1495 11.05652,11.2735 11.05652,14.8656 0,2.4107 -0.4104,3.136 -5.37665,9.4999 l -3.27406,4.1956 1.59156,2.9917 c 0.87533,1.6456 2.23348,4.6933 3.01818,6.7728 1.26815,3.3608 1.5414,3.808 2.4595,4.0243 0.56805,0.1338 3.43837,0.6845 6.37852,1.2237 5.7704,1.0584 6.99058,1.583 8.60482,3.6996 l 1.04838,1.3746 v 15.0272 c 0,14.4888 -0.0271,15.079 -0.75743,16.4711 -1.51446,2.8868 -2.64369,3.4288 -10.24342,4.9157 l -6.85302,1.3408 -1.35743,3.2835 c -0.7465,1.8059 -2.0955,4.8546 -2.99768,6.7747 l -1.64026,3.4915 3.45481,4.9226 c 1.90009,2.7075 3.68572,5.4524 3.96782,6.0999 0.87866,2.016 0.6541,4.7874 -0.55682,6.871 -1.44743,2.4903 -18.40339,19.3407 -20.22772,20.1018 -0.74807,0.3121 -2.35368,0.5674 -3.56813,0.5674 -2.20051,0 -2.22694,-0.013 -7.86716,-3.8413 -3.11268,-2.1125 -5.80433,-3.8411 -5.98154,-3.8411 -0.1771,0 -1.95128,0.766 -3.94242,1.7023 -1.99114,0.9364 -5.10184,2.2344 -6.91264,2.8845 l -3.29249,1.1821 -0.7593,5.2552 c -0.41759,2.8903 -0.88928,5.817 -1.04817,6.5037 -0.39064,1.6886 -3.35097,4.6113 -5.18685,5.121 -2.22059,0.6166 -27.31581,0.4876 -29.36325,-0.1509 z m -22.18297,-58.6744 c 2.37272,-2.5463 7.36321,-6.4079 11.15111,-8.6286 3.72568,-2.1841 11.04601,-5.3132 12.43029,-5.3132 0.57096,0 2.08542,0.484 3.36553,1.0755 3.15575,1.4582 7.21472,2.22 11.73206,2.2018 3.78884,-0.016 4.15346,-0.087 13.82539,-2.7394 l 2.37792,-0.6519 3.97125,1.586 c 7.39057,2.9518 13.95681,7.4414 19.68143,13.457 3.58498,3.7673 3.0931,3.7769 5.69277,-0.1129 4.90412,-7.3382 8.82647,-17.2023 11.08097,-27.8677 0.71956,-3.4037 0.75161,-4.0782 0.37472,-7.8653 -2.00197,-20.1113 -12.81291,-36.4467 -29.94514,-45.2469 -8.92875,-4.5865 -18.90058,-6.5738 -29.42172,-5.8636 -25.64278,1.7309 -46.80994,21.0028 -51.18555,46.6025 -1.0514,6.1508 -0.80863,15.7544 0.54099,21.4008 1.69385,7.0869 4.86177,14.2669 8.717,19.7565 l 1.86585,2.6568 0.9539,-1.2379 c 0.52465,-0.6807 1.78073,-2.125 2.79123,-3.2095 z m 35.49348,-22.7662 c -9.0351,-0.8758 -16.72994,-7.5868 -19.01754,-16.586 -0.71092,-2.7968 -0.71092,-8.2072 0,-11.0039 2.05253,-8.0748 9.10461,-14.9874 16.93202,-16.5976 7.61586,-1.5667 15.63443,0.7915 20.92554,6.1541 4.13732,4.1933 6.2191,9.4469 6.2191,15.6951 0,6.4455 -1.98927,11.2346 -6.56873,15.8141 -5.13399,5.134 -11.10325,7.2402 -18.49039,6.5242 z"
       id="path1178" /></g></svg>
