<?xml version="1.0" encoding="UTF-8" standalone="no"?>
<!-- Created with Inkscape (http://www.inkscape.org/) -->

<svg
   width="150.14667mm"
   height="180mm"
   viewBox="0 0 150.14667 180"
   version="1.1"
   id="svg5"
   xml:space="preserve"
   xmlns:inkscape="http://www.inkscape.org/namespaces/inkscape"
   xmlns:sodipodi="http://sodipodi.sourceforge.net/DTD/sodipodi-0.dtd"
   xmlns="http://www.w3.org/2000/svg"
   xmlns:svg="http://www.w3.org/2000/svg"><sodipodi:namedview
     id="namedview7"
     pagecolor="#ffffff"
     bordercolor="#000000"
     borderopacity="0.25"
     inkscape:showpageshadow="2"
     inkscape:pageopacity="0.0"
     inkscape:pagecheckerboard="0"
     inkscape:deskcolor="#d1d1d1"
     inkscape:document-units="mm"
     showgrid="false" /><defs
     id="defs2" /><g
     inkscape:label="Capa 1"
     inkscape:groupmode="layer"
     id="layer1"
     transform="translate(669.77632,224.47851)"><path
       style="fill:#000000;stroke-width:0.351859"
       d="m -643.5659,-44.741092 c -7.57111,-1.121723 -12.5672,-3.551932 -17.65504,-8.587804 -7.2558,-7.181711 -9.40916,-15.246542 -8.26746,-30.963644 0.74948,-10.317765 2.6196,-19.95913 5.21565,-26.88915 1.52856,-4.08046 4.84502,-10.30493 6.94381,-13.03245 6.38784,-8.30149 15.40837,-12.91544 25.63154,-13.1104 3.8246,-0.0729 4.15966,0.0693 12.19458,5.17679 6.10342,3.87969 6.39797,4.03507 10.61199,5.59833 5.88179,2.18193 8.8028,2.73491 14.36139,2.71877 8.63471,-0.0251 15.39932,-2.31033 24.86781,-8.40099 8.2631,-5.31529 8.77761,-5.49752 14.09713,-4.9935 18.93806,1.79439 30.49777,16.18894 34.73765,43.256461 1.49278,9.529958 1.6069,22.405088 0.24483,27.620978 -2.74118,10.49711 -10.58902,18.09562 -21.67767,20.988996 -3.16674,0.826306 -3.16674,0.826306 -51.19558,0.876176 -26.41587,0.02743 -48.96565,-0.08889 -50.11063,-0.258563 z m 44.12901,-93.243478 c -13.87961,-0.95262 -26.69738,-9.08521 -34.05315,-21.60595 -6.38891,-10.87499 -7.42514,-25.87926 -2.60526,-37.72309 5.17635,-12.71978 16.87339,-22.88751 29.79714,-25.90137 15.44392,-3.60156 30.27407,0.56847 41.2025,11.58556 7.49451,7.55531 11.51831,16.14918 12.40775,26.49998 0.88159,10.25948 -1.41702,19.54302 -6.93051,27.99065 -2.13765,3.27525 -9.06613,10.18704 -12.33427,12.30454 -8.28093,5.36544 -17.09701,7.56261 -27.4842,6.84968 z"
       id="path494"
       inkscape:export-filename="profile.in.light.svg"
       inkscape:export-xdpi="96"
       inkscape:export-ydpi="96" /></g></svg>
