<?xml version="1.0" encoding="UTF-8" standalone="no"?>
<!-- Created with Inkscape (http://www.inkscape.org/) -->

<svg
   width="150.14667mm"
   height="180mm"
   viewBox="0 0 150.14667 180"
   version="1.1"
   id="svg5"
   xml:space="preserve"
   xmlns:inkscape="http://www.inkscape.org/namespaces/inkscape"
   xmlns:sodipodi="http://sodipodi.sourceforge.net/DTD/sodipodi-0.dtd"
   xmlns="http://www.w3.org/2000/svg"
   xmlns:svg="http://www.w3.org/2000/svg"><sodipodi:namedview
     id="namedview7"
     pagecolor="#ffffff"
     bordercolor="#000000"
     borderopacity="0.25"
     inkscape:showpageshadow="2"
     inkscape:pageopacity="0.0"
     inkscape:pagecheckerboard="0"
     inkscape:deskcolor="#d1d1d1"
     inkscape:document-units="mm"
     showgrid="false" /><defs
     id="defs2" /><g
     inkscape:label="Capa 1"
     inkscape:groupmode="layer"
     id="layer1"
     transform="translate(876.02633,228.94729)"><path
       style="fill:#000000;stroke-width:0.35186"
       d="m -849.81592,-49.209852 c -7.57112,-1.121723 -12.56721,-3.551932 -17.65505,-8.587804 -7.2558,-7.181711 -9.40915,-15.246542 -8.26746,-30.963643 0.7495,-10.317766 2.61961,-19.959121 5.21565,-26.889151 1.52858,-4.08045 4.84502,-10.30492 6.94381,-13.03245 6.38785,-8.30149 15.40838,-12.91544 25.63155,-13.11039 3.8246,-0.0729 4.15965,0.0693 12.19459,5.17678 6.10339,3.87969 6.39795,4.03509 10.61198,5.59833 5.88178,2.18195 8.80279,2.73493 14.36138,2.71877 8.6347,-0.0251 15.39932,-2.31033 24.86781,-8.40098 8.26311,-5.31528 8.77761,-5.49753 14.09714,-4.99351 18.93805,1.7944 30.49776,16.18894 34.73764,43.256461 1.49278,9.529959 1.6069,22.405088 0.24484,27.620979 -2.74118,10.497109 -10.58903,18.095632 -21.67768,20.989007 -3.16674,0.826294 -3.16674,0.826294 -51.19558,0.876164 -26.41586,0.02743 -48.96564,-0.08889 -50.11062,-0.258563 z m 97.73195,-10.687513 c 5.82921,-1.038989 10.9054,-4.562707 13.35672,-9.271794 1.68284,-3.232827 2.35733,-6.548201 2.3536,-11.568826 -0.01,-13.924928 -2.49453,-27.272725 -6.60106,-35.468365 -4.59061,-9.16177 -10.38359,-13.74375 -18.87522,-14.92945 -2.83621,-0.39603 -2.13317,-0.68607 -9.13061,3.76684 -6.11489,3.89128 -9.53139,5.54036 -15.04051,7.25979 -5.4633,1.70513 -9.40964,2.31945 -14.89985,2.31945 -5.64828,0 -9.91459,-0.68497 -15.35812,-2.46579 -5.79659,-1.89633 -8.56813,-3.26629 -15.20658,-7.51663 -5.84321,-3.74118 -5.84321,-3.74118 -8.40693,-3.38267 -9.78978,1.36903 -16.50162,7.55978 -20.78442,19.17077 -3.16534,8.58141 -5.31153,24.045655 -4.71236,33.954463 0.6122,10.124407 6.41503,16.609635 16.36414,18.288554 0.90359,0.152478 22.46418,0.290331 47.91243,0.306339 38.16971,0.02407 46.75257,-0.05698 49.02877,-0.462681 z m -53.60294,-82.555955 c -13.87961,-0.95262 -26.6974,-9.0852 -34.05315,-21.60595 -6.38891,-10.875 -7.42515,-25.87927 -2.60526,-37.7231 5.17634,-12.71978 16.87338,-22.8875 29.79715,-25.90137 15.4439,-3.60157 30.27406,0.56847 41.20248,11.58556 7.53713,7.59826 11.58439,16.28998 12.40427,26.63881 0.82305,10.38855 -1.42275,19.41832 -6.92703,27.85183 -2.10075,3.21871 -9.05435,10.17978 -12.20877,12.22187 -8.37933,5.42455 -17.22353,7.64519 -27.60969,6.93235 z m 6.99266,-10.5301 c 4.18601,-0.44089 6.94966,-1.15775 10.14024,-2.63026 8.96717,-4.13849 15.87581,-12.27628 18.27105,-21.52177 0.72797,-2.80992 0.90075,-4.32197 0.9182,-8.03541 0.0245,-5.24372 -0.38817,-7.84078 -1.91857,-12.07027 -2.93345,-8.10696 -11.19861,-16.28816 -19.49919,-19.30111 -5.63729,-2.04623 -13.65148,-2.39296 -19.6545,-0.85036 -10.88672,2.79758 -20.48392,12.38034 -23.46053,23.42526 -1.09265,4.05438 -1.1078,12.47471 -0.0298,16.58368 1.49811,5.7105 3.85314,9.8012 8.34506,14.49541 5.5761,5.82722 11.98788,9.04538 19.71948,9.89743 3.53156,0.3892 3.54371,0.38921 7.16858,0.008 z"
       id="path498"
       inkscape:export-filename="profile.light.svg"
       inkscape:export-xdpi="96"
       inkscape:export-ydpi="96" /></g></svg>
