<?xml version="1.0" encoding="UTF-8" standalone="no"?>
<!-- Created with Inkscape (http://www.inkscape.org/) -->

<svg
   width="179.87439mm"
   height="180.00003mm"
   viewBox="0 0 179.87439 180.00003"
   version="1.1"
   id="svg5"
   xml:space="preserve"
   xmlns:inkscape="http://www.inkscape.org/namespaces/inkscape"
   xmlns:sodipodi="http://sodipodi.sourceforge.net/DTD/sodipodi-0.dtd"
   xmlns="http://www.w3.org/2000/svg"
   xmlns:svg="http://www.w3.org/2000/svg"><sodipodi:namedview
     id="namedview7"
     pagecolor="#ffffff"
     bordercolor="#000000"
     borderopacity="0.25"
     inkscape:showpageshadow="2"
     inkscape:pageopacity="0.0"
     inkscape:pagecheckerboard="0"
     inkscape:deskcolor="#d1d1d1"
     inkscape:document-units="mm"
     showgrid="false" /><defs
     id="defs2" /><g
     inkscape:label="Capa 1"
     inkscape:groupmode="layer"
     id="layer1"
     transform="translate(874.12917,691.61271)"><path
       style="fill:#000000;stroke-width:0.351602"
       d="m -862.05477,-512.13319 c -5.87993,-1.58353 -10.429,-6.28612 -11.65189,-12.04509 -0.56327,-2.65265 -0.56327,-152.19386 0,-154.84652 0.91055,-4.28805 4.24746,-8.73003 7.97843,-10.62066 4.0761,-2.06552 1.1121,-1.96646 58.83868,-1.96646 37.47065,0 53.54684,0.11428 54.8641,0.39015 5.90666,1.2368 10.93166,6.26405 12.19148,12.19697 0.27575,1.29858 0.39564,11.0971 0.39564,32.33388 0,30.47066 0,30.47066 10.10859,20.42471 11.23981,-11.17018 11.5258,-11.37464 15.91003,-11.37464 4.03737,0 5.0859,0.63569 11.52662,6.98828 6.82474,6.73135 7.63576,8.02437 7.63576,12.17408 0,4.77449 0.75646,3.88093 -23.51488,27.77664 -21.60635,21.27198 -21.60635,21.27198 -21.63624,42.96616 -0.0202,14.62403 -0.15882,22.30142 -0.42552,23.55741 -1.25982,5.93291 -6.28482,10.96017 -12.19148,12.19697 -1.32031,0.27646 -17.35379,0.38341 -55.02587,0.36701 -44.5888,-0.0194 -53.45953,-0.10312 -55.00345,-0.51889 z m 109.12141,-10.57682 c 0.66152,-0.31391 1.55566,-1.06546 1.98697,-1.67012 0.78117,-1.09515 0.78455,-1.16313 0.88216,-17.79948 0.0979,-16.70012 0.0979,-16.70012 -1.94309,-14.68033 -1.82867,1.80957 -2.88173,2.41596 -10.11868,5.82661 -19.44701,9.16503 -23.54077,10.96234 -24.96586,10.961 -1.70009,-0.001 -3.44091,-1.00684 -4.4065,-2.54459 -1.42281,-2.26584 -1.0904,-3.24607 6.8245,-20.12512 7.25096,-15.46317 7.25096,-15.46317 20.97411,-29.18961 13.72317,-13.72646 13.72317,-13.72646 13.63034,-49.7592 -0.0929,-36.03275 -0.0929,-36.03275 -0.87698,-37.13211 -1.72671,-2.42069 2.52961,-2.2575 -56.23577,-2.15634 -53.03182,0.0913 -53.03182,0.0913 -54.13118,0.87545 -2.43094,1.734 -2.24086,-4.92299 -2.24086,78.48155 0,74.73549 0.005,75.30207 0.70708,76.67782 0.43211,0.84703 1.21829,1.65589 2.02171,2.08008 1.29157,0.68188 2.23956,0.69434 54.00197,0.70961 47.90353,0.0141 52.79652,-0.0363 53.89008,-0.55522 z m -95.39616,-68.72324 c -1.61131,-0.79758 -2.91858,-2.89993 -2.91858,-4.69367 0,-1.48037 1.32459,-3.54112 2.81425,-4.37836 1.31296,-0.73793 1.53831,-0.74466 24.93636,-0.74466 22.48933,0 23.67358,0.0317 24.91871,0.66692 1.47106,0.75048 2.88397,2.93361 2.88397,4.4561 0,1.81558 -1.31241,3.91043 -2.94498,4.70073 -1.46482,0.70911 -1.98742,0.72434 -24.85477,0.72406 -22.94466,-2.7e-4 -23.38466,-0.0133 -24.83496,-0.73112 z m 0,-28.12824 c -1.61131,-0.79758 -2.91858,-2.89994 -2.91858,-4.69369 0,-1.48036 1.32459,-3.54112 2.81425,-4.37834 1.32258,-0.74334 1.38174,-0.74466 33.37484,-0.74466 30.77473,0 32.10193,0.0266 33.35718,0.66692 1.47105,0.75047 2.88396,2.93359 2.88396,4.45608 0,1.81559 -1.31239,3.91043 -2.94497,4.70075 -1.47704,0.71503 -1.90535,0.72433 -33.29324,0.72406 -31.48949,-2.8e-4 -31.81126,-0.008 -33.27344,-0.73112 z m 0,-28.12824 c -1.61131,-0.7976 -2.91858,-2.89994 -2.91858,-4.6937 0,-1.48034 1.32459,-3.5411 2.81425,-4.37834 1.32493,-0.74466 1.32493,-0.74466 41.81332,-0.74466 39.06015,0 40.5345,0.0235 41.79565,0.66692 1.47104,0.75048 2.88396,2.9336 2.88396,4.45608 0,1.8156 -1.3124,3.91044 -2.94497,4.70075 -1.48412,0.71846 -1.8233,0.72435 -41.73173,0.72407 -40.03431,-2.7e-4 -40.24282,-0.004 -41.7119,-0.73112 z m 80.63301,87.639 c 7.68939,-3.63016 7.68939,-3.63016 27.37917,-23.10693 19.68978,-19.47677 19.68978,-19.47677 15.47603,-23.70696 -2.31755,-2.32661 -4.37497,-4.23021 -4.57203,-4.23021 -0.19705,0 -9.09492,8.74174 -19.77303,19.42607 -19.41476,19.42608 -19.41476,19.42608 -23.11672,27.30399 -2.03608,4.33284 -3.70196,7.94557 -3.70196,8.02826 0,0.21257 -0.17181,0.28937 8.30854,-3.71422 z m 62.84779,-58.57282 c -0.0842,-0.21028 -2.04522,-2.281 -4.35773,-4.60158 -4.20457,-4.21923 -4.20457,-4.21923 -8.51251,0.0861 -4.30794,4.30539 -4.30794,4.30539 0.0513,8.67508 4.35919,4.36969 4.35919,4.36969 8.66567,0.2962 2.36855,-2.24044 4.23753,-4.24557 4.15329,-4.45586 z"
       id="path500"
       inkscape:export-filename="redact.light.svg"
       inkscape:export-xdpi="96"
       inkscape:export-ydpi="96" /></g></svg>
