<?xml version="1.0" encoding="UTF-8" standalone="no"?>
<!-- Created with Inkscape (http://www.inkscape.org/) -->

<svg
   width="180.06958mm"
   height="180mm"
   viewBox="0 0 180.06958 180"
   version="1.1"
   id="svg5"
   xml:space="preserve"
   xmlns:inkscape="http://www.inkscape.org/namespaces/inkscape"
   xmlns:sodipodi="http://sodipodi.sourceforge.net/DTD/sodipodi-0.dtd"
   xmlns="http://www.w3.org/2000/svg"
   xmlns:svg="http://www.w3.org/2000/svg"><sodipodi:namedview
     id="namedview7"
     pagecolor="#ffffff"
     bordercolor="#000000"
     borderopacity="0.25"
     inkscape:showpageshadow="2"
     inkscape:pageopacity="0.0"
     inkscape:pagecheckerboard="0"
     inkscape:deskcolor="#d1d1d1"
     inkscape:document-units="mm"
     showgrid="false" /><defs
     id="defs2" /><g
     inkscape:label="Capa 1"
     inkscape:groupmode="layer"
     id="layer1"
     transform="translate(919.0497,-406.95263)"><path
       style="fill:#000000;stroke-width:0.351743"
       d="m -747.17223,586.37202 c -0.81318,-0.37451 -7.46986,-6.66203 -17.41126,-16.44565 -34.75069,-34.19919 -30.86982,-30.65552 -32.36569,-29.55348 -18.22924,13.42996 -39.93282,18.37795 -61.64007,14.05273 -20.05092,-3.99519 -37.53234,-15.98879 -49.0425,-33.64693 -4.38165,-6.72204 -8.44267,-16.8922 -10.00631,-25.0591 -2.45681,-12.83198 -1.71536,-24.83917 2.29149,-37.10885 3.67964,-11.26768 9.55079,-20.72534 18.26835,-29.4279 20.47405,-20.43886 50.48445,-27.4496 78.10412,-18.24593 17.13419,5.7096 32.33589,18.02097 41.43587,33.55761 10.63917,18.16452 12.803,40.54613 5.88884,60.91128 -2.72155,8.01609 -8.18569,17.51151 -13.71699,23.83697 -1.93961,2.21809 -1.93961,2.21809 -1.08795,3.02022 0.46843,0.44117 11.17756,10.97219 23.79807,23.40226 24.45895,24.08986 24.06077,23.64204 23.52812,26.46116 -0.35416,1.87438 -1.43756,3.3088 -3.11098,4.11889 -1.86592,0.90327 -3.17406,0.93688 -4.93311,0.12672 z m -87.01288,-42.49112 c 8.89607,-1.38721 16.78338,-4.15363 23.7846,-8.34228 13.17446,-7.88195 22.9471,-19.81012 27.72434,-33.83941 9.62971,-28.27955 -1.76865,-58.8252 -27.72434,-74.29642 -14.43091,-8.60173 -32.3598,-11.14688 -48.9314,-6.94619 -22.30893,5.65502 -39.89679,22.78584 -45.85291,44.66138 -1.5322,5.6274 -2.04589,9.73412 -2.04589,16.35603 0,6.62191 0.51369,10.72863 2.04589,16.35604 5.88313,21.60747 23.45853,38.88848 45.28852,44.52992 8.02957,2.07504 18.27216,2.68094 25.71119,1.52093 z"
       id="path502" /></g></svg>
